<svg xmlns="http://www.w3.org/2000/svg" version="1.1" width="800px" height="800px" xlink="http://www.w3.org/1999/xlink" style="overflow:hidden!important;"><g id="svga-group-wrapper" transform="scale(4 4)"><g id="svga-group-backs-single"><path id="SvgjsPath4042" d="M225 225H-25V-25h250V225z" fill="#ecf0f1" stroke-width="none" opacity="1"></path><path id="SvgjsPath4043" d="M30.816 56.624l3.375 1.049 -2.886 2.041 0.045 3.535 -2.833-2.114 -3.347 1.136 1.134-3.348 -2.114-2.833 3.535 0.044 2.041-2.886L30.816 56.624zM40.051 33.259l-1.586 5.428 -5.372 1.771 4.672 3.187L37.79 49.3l4.475-3.458 5.385 1.725 -1.905-5.325 3.303-4.588 -5.653 0.168L40.051 33.259zM9.358 99.38l-2.422 3.986 -4.711 0.273 3.104 3.526 -1.17 4.508 4.344-1.807 3.987 2.514 -0.421-4.643 3.633-2.954 -4.602-1.063L9.358 99.38zM11.271 71.054l0.168 3.531 -2.814 2.14 3.41 0.932 1.166 3.337 1.939-2.955 3.534-0.077 -2.21-2.759 1.019-3.384 -3.306 1.25L11.271 71.054zM5.396 51.958l3.615-2.959 0.182 4.63 3.969 2.479L8.755 57.71 7.592 62.2l-2.905-3.641L0 58.856l2.612-3.853 -1.735-4.307L5.396 51.958zM5.222 135.998l2.556-1.095 -0.621 2.515 1.908 1.88 -2.799 0.256 -1.377 2.256 -1.111-2.357 -2.758-0.484 2.115-1.714 -0.329-2.556L5.222 135.998zM20.532 155.007l2.81 0.867 -2.402 1.688 0.038 2.922 -2.358-1.748 -2.785 0.939 0.943-2.768 -1.76-2.342 2.942 0.037 1.699-2.387L20.532 155.007zM31.034 83.795l4.647 0.739 -3.406 3.215 0.738 4.622 -4.139-2.236 -4.191 2.116 0.849-4.598 -3.329-3.312 4.666-0.606 2.132-4.164L31.034 83.795zM22.119 29.902l5.203 1.198 -4.104 3.329 0.474 5.232 -4.507-2.832 -4.909 2.035 1.322-5.08 -3.509-3.974 5.325-0.307 2.738-4.491L22.119 29.902zM26.758 136.314l4.432-0.083 -2.633 3.463 1.437 4.064 -4.2-1.354L22.251 145l0.04-4.301 -3.627-2.46 4.226-1.304 1.298-4.115L26.758 136.314zM56.458 148.571l4.296-0.914 -1.894 3.861 2.184 3.68 -4.349-0.525 -2.947 3.188 -0.792-4.187 -4.005-1.709 3.86-2.063 0.468-4.242L56.458 148.571zM41.369 162.985l5.203 1.198 -4.104 3.329 0.474 5.232 -4.507-2.832 -4.909 2.035 1.322-5.08 -3.509-3.975 5.325-0.307 2.738-4.491L41.369 162.985zM30.869 110.835l5.203 1.199 -4.104 3.328 0.474 5.232 -4.507-2.832 -4.909 2.035 1.322-5.08 -3.509-3.974 5.325-0.308 2.738-4.49L30.869 110.835zM45.782 133.007l2.81 0.867 -2.402 1.688 0.038 2.922 -2.358-1.748 -2.785 0.939 0.943-2.768 -1.76-2.342 2.942 0.037 1.699-2.387L45.782 133.007zM39.066 13.124l3.375 1.049 -2.886 2.041 0.045 3.535 -2.833-2.114 -3.347 1.136 1.134-3.348 -2.114-2.833 3.535 0.044 2.041-2.886L39.066 13.124zM60.934 3.517L65.4 3.387l-2.609 3.538 1.505 4.106 -4.255-1.331 -3.536 2.667 -0.019-4.36L52.795 5.55l4.244-1.365L58.293 0 60.934 3.517zM65.782 172.007l2.81 0.867 -2.402 1.688 0.038 2.922 -2.358-1.748 -2.785 0.939 0.943-2.768 -1.76-2.342 2.942 0.037 1.699-2.387L65.782 172.007zM49.908 108.489l4.072-0.469 -2.299 3.158 1.465 3.299 -3.91-0.764 -3.165 2.505 -0.116-3.63 -3.422-1.752 3.84-1.479 1.047-3.586L49.908 108.489zM169.184 120.86l-3.376-1.049 2.886-2.041 -0.045-3.535 2.833 2.113 3.347-1.135 -1.134 3.348 2.114 2.832 -3.535-0.045 -2.04 2.887L169.184 120.86zM159.948 144.224l1.587-5.428 5.371-1.771 -4.672-3.187 -0.024-5.655 -4.475 3.458 -5.386-1.725 1.905 5.325 -3.303 4.589 5.652-0.168L159.948 144.224zM190.642 78.103l2.422-3.986 4.712-0.273 -3.104-3.526 1.17-4.508 -4.345 1.807 -3.987-2.514 0.421 4.643 -3.633 2.954 4.602 1.063L190.642 78.103zM188.729 106.43l-0.168-3.531 2.814-2.14 -3.409-0.932L186.8 96.49l-1.939 2.955 -3.534 0.077 2.211 2.759 -1.02 3.384 3.307-1.25L188.729 106.43zM194.604 125.525l-3.615 2.959 -0.182-4.63 -3.969-2.479 4.406-1.602 1.163-4.49 2.905 3.642 4.688-0.298 -2.612 3.853 1.735 4.307L194.604 125.525zM194.778 41.485l-2.556 1.095 0.62-2.515 -1.907-1.88 2.799-0.256 1.377-2.256 1.11 2.357 2.759 0.484 -2.115 1.714 0.329 2.556L194.778 41.485zM179.468 22.477l-2.811-0.867 2.402-1.688L179.022 17l2.358 1.748 2.784-0.939 -0.943 2.768 1.76 2.342 -2.942-0.037 -1.699 2.387L179.468 22.477zM168.966 93.688l-4.647-0.739 3.406-3.215 -0.738-4.622 4.139 2.236 4.191-2.116 -0.85 4.598 3.329 3.312 -4.665 0.606 -2.132 4.164L168.966 93.688zM177.881 147.581l-5.203-1.198 4.104-3.329 -0.474-5.232 4.507 2.832 4.909-2.035 -1.322 5.08 3.509 3.975 -5.325 0.307 -2.737 4.491L177.881 147.581zM173.241 41.169l-4.432 0.083 2.634-3.463 -1.437-4.064 4.2 1.354 3.541-2.595 -0.039 4.301 3.627 2.46 -4.226 1.304 -1.299 4.115L173.241 41.169zM151.968 35.013l-4.296 0.914 1.894-3.861 -2.185-3.68 4.349 0.525 2.947-3.188 0.792 4.187 4.006 1.709 -3.86 2.063 -0.469 4.242L151.968 35.013zM158.631 14.498l-5.203-1.198 4.104-3.329 -0.474-5.232 4.507 2.832 4.909-2.035 -1.322 5.08 3.509 3.975 -5.325 0.307 -2.737 4.491L158.631 14.498zM169.131 66.648l-5.203-1.199 4.104-3.328 -0.474-5.232 4.507 2.832 4.909-2.035 -1.322 5.08 3.509 3.974 -5.325 0.308 -2.737 4.49L169.131 66.648zM131.544 149.7l-2.81-0.867 2.402-1.688 -0.038-2.922 2.358 1.748 2.784-0.939 -0.943 2.768 1.76 2.342 -2.942-0.037 -1.699 2.387L131.544 149.7zM160.934 164.36l-3.376-1.049 2.886-2.041 -0.045-3.535 2.833 2.113 3.347-1.135 -1.134 3.348 2.114 2.832 -3.535-0.045 -2.04 2.887L160.934 164.36zM139.065 173.967l-4.466 0.13 2.609-3.539 -1.505-4.105 4.255 1.33 3.535-2.667 0.019 4.36 3.691 2.457 -4.243 1.365 -1.254 4.186L139.065 173.967zM134.218 5.477l-2.811-0.867 2.402-1.688L133.772 0l2.358 1.748 2.784-0.939 -0.943 2.768 1.76 2.342 -2.942-0.037 -1.699 2.387L134.218 5.477zM151.776 111.519l-4.072 0.469 2.299-3.158 -1.465-3.299 3.91 0.764 3.165-2.505 0.115 3.63 3.423 1.752 -3.84 1.479 -1.048 3.586L151.776 111.519z" fill="#ffffff" stroke-width="none" opacity="1"></path></g><g id="svga-group-subwrapper" ><g id="svga-group-hair-back" ><path id="SvgjsPath4137" d="M160 24.999H40c0 0-1 193.284-1 199h123L160 24.999z" fill="#4c2d1e" stroke-width="none" opacity="1"></path></g><g id="svga-group-humanbody-single"><path id="SvgjsPath2758" d="M190.858 199.866c-6.008-10.158-13.474-11.973-19.628-13.936 -6.323-2.016-19.346-3.178-26.449-4.6 -6.86-1.373-23.153-5.789-23.339-13.488 -0.192-8.066 4.291-40.09 4.291-40.09H74.005c0 0 4.487 32.023 4.294 40.09 -0.184 7.699-16.48 12.115-23.341 13.488 -7.104 1.422-20.125 2.584-26.448 4.6 -6.156 1.963-13.624 3.777-19.632 13.936 -3.644 6.16-6.008 16.133-6.008 27.133h194C196.869 215.999 194.509 206.026 190.858 199.866z" fill="#f3d4cf" stroke-width="none" opacity="1" stroke="none"></path><path id="SvgjsPath2759" d="M121.442 167.843c2.495 10.929 18.165 13.698 26.293 15.325 21.909 4.379 33.772 5.134 42.297 19.539 2.903 4.916 5.459 15.864 5.962 24.153 1.835 0.291 0.531-17.432-5.136-26.994 -9.742-16.472-29.089-15.135-46.077-18.535C137.921 179.958 121.628 175.542 121.442 167.843L121.442 167.843zM78.558 167.843c-0.186 7.699-16.479 12.115-23.339 13.488 -16.988 3.4-36.335 2.063-46.077 18.535 -5.667 9.563-6.971 27.285-5.136 26.994 0.503-8.289 3.059-19.237 5.962-24.153 8.524-14.405 20.388-15.16 42.297-19.539C60.393 181.541 76.063 178.771 78.558 167.843L78.558 167.843z" fill="#fff4f3" stroke-width="none" opacity="1" stroke="none"></path><path id="SvgjsPath2760" d="M51.206 189.513c0 0 28.641 0.299 33.473 1.885 2.314 0.758 8.372 5.633 8.372 5.633s-6.556-3.17-8.658-3.758C79.51 191.909 51.206 189.513 51.206 189.513zM99.795 199.999c2.053-0.041 7.887-3.799 7.887-3.799s-5.574 2.059-7.342 2.16c-1.491 0.086-6.366-1.238-6.366-1.238S98.112 200.032 99.795 199.999zM117.008 192.757c6.75-1.818 29.786-3.23 29.786-3.23s-23.791-0.516-30.51 1.725c-2.252 0.752-7.562 5.16-7.562 5.16S114.786 193.354 117.008 192.757z" fill="#e4b3ab" stroke-width="none" opacity="1" stroke="none"></path><path id="SvgjsPath2761" d="M190.858 199.866c-9.741-16.471-29.122-15.142-46.077-18.535 -6.86-1.373-23.153-5.789-23.339-13.488 -0.192-8.066 4.291-40.09 4.291-40.09H74.005c0 0 4.487 32.023 4.294 40.09 -0.184 7.699-16.48 12.115-23.341 13.488 -7.104 1.422-20.125 2.584-26.448 4.6 -6.156 1.963-13.624 3.777-19.632 13.936 -3.644 6.16-6.008 16.133-6.008 27.133h194C196.869 215.999 194.509 206.026 190.858 199.866z" fill="none" stroke="#c5796d" stroke-width="1.5" opacity="1"></path></g><g id="svga-group-chinshadow-single"><path id="SvgjsPath3968" d="M100.002 171.005c10.695 0 16.372-2.606 20.836-5.726 0.384-8.456 2.755-26.607 3.782-34.206 -14.799-1.759-34.763-1.747-49.5 0.032 1.023 7.564 3.362 25.461 3.771 33.979C83.4 168.289 89.086 171.005 100.002 171.005z" fill="url(#SvgjsLinearGradient3969)" opacity="1"></path></g><g id="svga-group-clothes-single" ><path id="SvgjsPath4096" d="M4.299 238.659c-0.18-1-2.264-16.415-2.47-22.946 -0.294-9.499 1.371-23.079 10.881-22.987 10.824-7.524 29.089-14.021 41.718-17.795 7.903-8.587 9.483-11.971 22.612-17.874l-0.01-0.127c1.513 10.484 2.967 15.62-8.844 19.862 -1.893 2.63-3.665 5.194-6.158 8.787 3.793 20.511 4.981 34.739 5.444 53.437 0 0 3.771 0.011 65.288-0.271 2.066-21.594-0.221-33.876 4.806-53.726 0 0-4.021-4.846-6.726-8.573 -11.595-4.517-9.139-11.206-8.146-19.353 10.072 4.714 13.179 8.309 21.653 17.281 6.702 1.904 13.776 3.962 20.646 6.653 9.097 3.563 20.648 10.538 21.648 11.366 3.7-0.107 5.789 1.931 7.347 5.283 5.044 10.821 3.85 26.385 2.034 41.358C178.207 239.065 55.08 241.174 4.299 238.659z" fill="#09aac5" stroke-width="none" opacity="1"></path><path id="SvgjsPath4097" d="M77.464 159.895c0.149 1.034 0.284 2.015 0.383 2.938 -0.204 0.257-15.968 22.574-16.084 22.742C65.661 176.392 71.143 166.878 77.464 159.895zM122.424 159.895c-0.148 1.034-0.172 2.015-0.271 2.938 0.203 0.257 15.799 21.719 15.914 21.887C133.938 176.165 128.746 166.878 122.424 159.895zM158.775 189.93c-3.994 6.022-4.847 8.102-9.219 14.07 1 0 2.612 0.162 3.612 0.162C156.588 198.086 156.594 194.993 158.775 189.93zM162.868 233.644c3.54-8.603 6.471-16.152 10.022-24.768l-1.164-1.946C168.77 215.778 165.631 224.77 162.868 233.644zM46.831 204.162c1 0 2.612-0.162 3.612-0.162 -4.372-5.969-5.225-6.342-9.219-12.364C43.406 196.699 43.412 198.086 46.831 204.162zM28.273 206.93l-1.164 1.946c3.552 8.615 4.447 16.165 7.987 24.768C32.333 224.77 31.23 215.778 28.273 206.93z" fill="#009cb6" stroke-width="none" opacity="1"></path><path id="SvgjsPath4098" d="M77.059 169.855c-0.83 2.3-3.59 4.11-5.59 5.25 -0.97 0.55-1.99 1.02-3.02 1.46 0.47-0.68 0.95-1.36 1.44-2.03 2.32-3.24 4.58-6.5 6.75-9.85 0.31-0.48 0.61-0.97 0.91-1.46C77.709 165.396 77.889 167.875 77.059 169.855zM123.169 170.306c-1.26-2.11-1.14-4.94-1-7.351 2.3 4.101 4.72 8.11 7.45 11.971 0.28 0.399 0.56 0.79 0.85 1.18C127.549 174.795 124.829 173.096 123.169 170.306z" fill="#008ea6" stroke-width="none" opacity="1"></path><path id="SvgjsPath4099" d="M122.672 157.263c0.007-0.057 0.015-0.112 0.021-0.169 16.884 9.666 24.725 22.013 36.082 32.836 -0.418 0.697-1.146 1.155-1.573 1.843C145.308 182.397 141.597 170.396 122.672 157.263zM75.469 157.905c-14.219 4.537-32.507 31.672-34.445 33.519 0.418 0.697 0.645 0.558 1.073 1.245C53.992 183.294 54.309 172.286 75.469 157.905zM193.988 197.678c-1.558-3.353-3.646-5.391-7.347-5.283 -1-0.828-12.552-7.804-21.648-11.366 -6.636-2.6-13.705-3.761-20.203-5.61 31.446 15.756 44.648 20.435 50.14 26.017C194.642 200.654 194.332 198.416 193.988 197.678zM10 198c14.511-7.683 26.714-13.407 44.203-23.001 -12.62 3.784-30.732 10.246-41.493 17.727 -7.185-0.069-9.89 7.664-10.658 15.546C5.147 202.205 6.798 200.401 10 198z" fill="#1fbad4" stroke-width="none" opacity="1"></path><path id="SvgjsPath4100" d="M197.589 214.005c-0.21-5.52-1.16-11.329-3.51-16.369 -1.24-2.67-2.91-4.83-5.979-5.24 -0.36-0.05-0.721-0.08-1.08-0.09 -0.11-0.011-0.23-0.021-0.341-0.011 -0.069-0.06-0.149-0.1-0.22-0.149 -2.31-1.47-4.7-2.82-7.01-4.17 -4.66-2.721-9.39-5.07-14.42-7.04 -6.74-2.641-13.66-4.67-20.61-6.63 -0.79-0.83-1.59-1.67-2.38-2.511 -3.51-3.729-6.99-7.409-11.24-10.319 -2.3-1.58-4.75-2.92-7.27-4.101 -0.271-0.13-0.54-0.25-0.811-0.38 -0.029-0.02-0.069-0.029-0.109-0.05 -0.021 0.2-0.05 0.39-0.08 0.58 -0.2 1.33-0.42 2.67-0.58 4 -0.04 0.29-0.07 0.57-0.1 0.86 -0.011 0.149-0.03 0.29-0.04 0.439 -0.23 2.66-0.32 5.66 1.159 8 1.82 2.87 4.7 4.49 7.79 5.68 2.011 2.771 4.12 5.431 6.36 8.061 0.12 0.14 0.24 0.28 0.35 0.43 -0.939 3.71-1.59 7.51-2.17 11.28 -0.819 5.42-1.35 10.84-1.489 16.32 -0.15 5.449-0.011 10.939-0.311 16.39 -0.17 3.22-0.53 6.44-0.83 9.66 -1.069 0-2.14 0.01-3.21 0.01 -10.58 0.05-21.149 0.1-31.72 0.15 -10.06 0.05-20.11 0.08-30.17 0.109 -0.21-9.699-0.71-19.359-1.81-29.01 -0.58-5.01-1.06-10.04-1.95-15.01 -0.55-3.09-1.1-6.18-1.7-9.26 2.03-2.92 4.05-5.851 6.11-8.75 3.65-1.311 7.29-3.131 9.13-6.58 1.14-2.16 0.78-5.261 0.54-7.65 -0.01-0.1-0.02-0.189-0.03-0.29 -0.03-0.27-0.05-0.53-0.09-0.79 -0.15-1.359-0.36-2.72-0.55-4.07 -0.04-0.199-0.06-0.39-0.09-0.59 -0.05 0.021-0.09 0.04-0.13 0.051 -0.29 0.13-0.58 0.25-0.87 0.369 -2.75 1.17-5.42 2.521-7.9 4.181 -2.34 1.56-4.5 3.33-6.53 5.27 -1.99 1.91-3.76 4.09-5.6 6.141 -0.57 0.64-1.14 1.27-1.7 1.909 -1.31 0.391-2.61 0.801-3.91 1.2 -4.93 1.53-9.75 3.29-14.58 5.11 -2.61 0.99-5.18 2.07-7.75 3.16 -2.38 1.02-4.81 2.01-7.07 3.279 -2.51 1.4-5.09 2.86-7.56 4.48 -0.18 0.11-0.36 0.229-0.54 0.35 -0.11 0.07-0.21 0.141-0.31 0.21 -0.6-0.01-1.2 0.03-1.79 0.15 -3.79 0.729-6.07 4.16-7.31 7.55 -1.79 4.891-2.01 10.24-1.85 15.391 0.17 5.38 0.92 10.71 1.56 16.039 0.27 2.271 0.57 4.53 0.9 6.79 0 0.07 0.01 0.141 0.03 0.21 0.61 0.03 1.22 0.061 1.83 0.091 4.09 0.21 8.18 0.39 12.27 0.479 16.34 0.37 32.69 0.65 49.03 0.71 0.08 0 0.16 0 0.24 0 4.1 0.01 8.19 0.01 12.29-0.01 11.2-0.06 22.4-0.11 33.61-0.16 6.36-0.03 12.72-0.06 19.08-0.1 0.09 0 0.18 0 0.27-0.011 5.011-0.02 10.021-0.06 15.03-0.119 15.45-0.16 30.91-0.36 46.36-0.48 0.63-0.01 1.25-0.02 1.88-0.02 0.02-0.131 0.029-0.25 0.04-0.381 0.279-2.46 0.529-4.93 0.76-7.39C197.449 225.565 197.81 219.835 197.589 214.005zM77.059 169.855c-0.83 2.3-3.59 4.11-5.59 5.25 -0.97 0.55-1.99 1.02-3.02 1.46 0.47-0.68 0.95-1.36 1.44-2.03 2.32-3.24 4.58-6.5 6.75-9.85 0.31-0.48 0.61-0.97 0.91-1.46C77.709 165.396 77.889 167.875 77.059 169.855zM64.689 238.926c-12.94 0.029-25.88 0.06-38.82-0.011 -0.1 0-0.19 0-0.29 0 -6.52-0.04-13.03-0.16-19.55-0.319 -0.29-2.9-0.59-5.811-0.94-8.71 -0.69-5.681-1.44-11.36-1.4-17.101 0.03-5.2 0.18-11.33 3.06-15.859 1.11-1.75 2.74-2.95 4.65-3.421 0.54-0.14 1.11-0.22 1.7-0.22 0.01-0.01 0.01-0.01 0.02 0 0.31 2.05 0.66 4.09 1.01 6.141 0.36 2.159 0.64 4.34 1.22 6.449 0.62 2.19 1.25 4.38 1.95 6.551 1.3 4 2.59 8 3.85 12.02 1.26 4.06 3.14 7.86 4.73 11.79 -1.11-4.08-2.59-8.04-3.6-12.14 -0.99-3.98-2.25-7.83-3.53-11.721 -0.37-1.12-0.71-2.239-1.03-3.37 -0.94-3.229-1.72-6.47-2.45-9.77 -0.49-1.98-0.96-3.96-1.44-5.94 -0.03-0.119-0.06-0.229-0.09-0.35 0.12-0.06 0.24-0.12 0.35-0.18 0.28-0.15 0.56-0.29 0.83-0.431 2.67-1.39 5.35-2.76 8.08-4.02 4.87-2.23 9.93-4.21 14.94-6.11 5.05-1.91 10.08-3.859 15.1-5.85 -2.34 2.63-4.66 5.27-6.93 7.96 -1.78 2.11-3.35 4.35-4.84 6.64 -0.14 0.21-0.28 0.42-0.41 0.641 0.11 0.189 0.23 0.37 0.36 0.56 2.54 3.89 5.15 7.76 7.83 11.561 -2.62 0.22-5.24 0.47-7.85 0.789 -3.51 0.431-6.99 0.931-10.44 1.721 -0.73 0.17-1.46 0.33-2.2 0.479 -0.31 0.07-0.62 0.141-0.94 0.2 0.07 0.2 0.13 0.41 0.19 0.61 2.53 8.71 4.24 17.66 7.32 26.22 -0.87-5.3-1.74-10.57-2.98-15.8 -0.72-2.99-1.52-5.96-2.6-8.851 -0.21-0.58-0.45-1.149-0.7-1.72 0.7-0.1 1.4-0.22 2.1-0.35 3.52-0.63 7.04-1.2 10.59-1.63 2.64-0.32 5.26-0.71 7.88-1.141 0.39-0.06 0.78-0.12 1.17-0.189 -0.09-0.15-0.18-0.301-0.27-0.45 -1.07-1.82-2.21-3.601-3.41-5.36 -1.66-2.33-3.38-4.56-5.18-6.74 1.78-2.289 3.72-4.42 5.72-6.529 3.1-3.271 6.08-6.63 9.08-9.99 0.26-0.3 0.53-0.61 0.8-0.91 0.06-0.06 0.11-0.13 0.17-0.189 3.5-3.95 6.95-7.83 11.19-11.051 2.44-1.869 5.06-3.47 7.78-4.93 0.2-0.11 0.39-0.21 0.59-0.31 0.14 1.47 0.3 2.939 0.4 4.42 -2.85 4.09-5.75 8.149-8.67 12.21 -0.74 1.02-1.46 2.05-2.17 3.08 -0.04 0.05-0.08 0.109-0.12 0.16 -1.58 2.3-3.12 4.63-4.61 6.989 -0.13 0.21-0.26 0.41-0.39 0.62 0.05 0.42 0.09 0.83 0.14 1.24 0.97 9.04 1.84 18.09 2.86 27.13 0.95 8.49 1.65 17 2.7 25.47C66.359 238.926 65.529 238.926 64.689 238.926zM123.169 170.306c-1.26-2.11-1.14-4.94-1-7.351 2.3 4.101 4.72 8.11 7.45 11.971 0.28 0.399 0.56 0.79 0.85 1.18C127.549 174.795 124.829 173.096 123.169 170.306zM189.979 238.695c-5.431-0.03-10.87-0.06-16.301-0.08 -13.55-0.04-27.09-0.03-40.63 0.03 0.11-0.62 0.23-1.25 0.34-1.87 0.551-3.04 1.25-6.12 1.45-9.2 0.37-5.479 0.511-10.939 0.66-16.43 0.14-5.41 0.78-10.811 1.32-16.18 0.319-3.141 0.64-6.29 1.12-9.41 0.06-0.41 0.12-0.811 0.189-1.21 -0.1-0.15-0.21-0.29-0.319-0.44 -0.021-0.02-0.03-0.04-0.051-0.06 -1.71-2.23-3.46-4.42-5.149-6.66 -0.07-0.09-0.141-0.181-0.21-0.271 -0.65-0.859-1.29-1.729-1.91-2.609 -2.851-4.04-5.561-8.181-8.25-12.33 0.1-1.46 0.28-2.91 0.42-4.37 0.18 0.11 0.37 0.21 0.55 0.32 2.45 1.43 4.84 2.97 7.061 4.739 4.069 3.24 7.569 6.99 11.1 10.771 0.01 0.01 0.02 0.03 0.03 0.04 0.29 0.31 0.58 0.62 0.87 0.93 3.14 3.35 6.3 6.68 9.6 9.88 2 1.94 4.09 3.78 6.15 5.66 -0.36 0.44-0.71 0.88-1.061 1.33 -1.56 2.02-2.88 4.27-4.25 6.42 -1.189 1.96-2.32 3.94-3.39 5.96 -0.08 0.14-0.15 0.28-0.22 0.42 0.369 0.07 0.739 0.141 1.109 0.2 2.8 0.51 5.62 0.97 8.44 1.36 4.1 0.569 8.18 1.26 12.279 1.8 -0.229 0.43-0.439 0.859-0.649 1.29 -1.34 2.75-2.43 5.84-3.351 8.75 -1.699 5.359-3.06 10.72-4.06 16.26 1.01-2.63 1.94-5.28 2.87-7.93 0.99-2.84 1.8-5.761 2.83-8.59 1.16-3.211 2.29-6.431 3.41-9.65 0.069-0.19 0.13-0.37 0.199-0.561 -0.319-0.05-0.64-0.109-0.949-0.159 -4.15-0.75-8.29-1.521-12.471-2.11 -2.729-0.38-5.479-0.69-8.229-0.96 2.81-4.36 5.47-8.81 8.13-13.26 0.1-0.181 0.21-0.351 0.31-0.521 -0.159-0.2-0.33-0.39-0.51-0.58 -2.01-2.25-4.109-4.439-6.149-6.68 -2.16-2.38-4.37-4.72-6.591-7.05 6.46 2.38 12.95 4.66 19.381 7.109 4.77 1.82 9.3 4.23 13.85 6.54 2.03 1.021 4.11 2 6.16 3.04 0.24 0.11 0.479 0.23 0.71 0.351 0.149 0.08 0.29 0.149 0.43 0.229 -0.57 2.19-1.38 4.29-2.11 6.431 -1.05 3.08-1.88 6.22-2.779 9.35 -0.37 1.27-0.75 2.54-1.16 3.8 -1.37 4.17-2.66 8.32-3.73 12.59 -0.93 3.7-1.859 7.41-2.779 11.11 2.979-7.91 5.47-15.97 8.08-24.01 1.409-4.34 2.47-8.771 3.68-13.17 0.53-1.931 1.03-3.84 1.4-5.79 0.029-0.15 0.06-0.3 0.09-0.46 0.229 0.02 0.449 0.05 0.67 0.1 0.59 0.1 1.149 0.271 1.689 0.49 1.36 0.56 2.311 1.71 3.011 3.07 0.02 0.029 0.029 0.06 0.05 0.09 0.79 1.56 1.25 3.38 1.63 4.859 2.66 10.36 1.72 21.28 0.75 31.78 -0.17 1.85-0.33 3.69-0.48 5.54C192.839 238.716 191.409 238.705 189.979 238.695z" fill="#008197" stroke-width="none" opacity="1"></path></g><g id="svga-group-head" ><g id="svga-group-ears-left" ><path id="SvgjsPath4058" d="M47.001 83.974c-1.376-2.313-5.638-7.997-9.98-6.603 -2.749 0.882-3.293 3.765-3.735 6.311 -0.588 3.386 0.471 10.083 1.389 12.503 0.881 2.325 3.533 6.816 5.264 8.527 2.13 2.1 4.775 8.793 5.194 9.487 0.66 1.097 1.536 2.745 4.122 2.538 2.853-0.229 4.584-1.742 5.856-1.999C58.253 114.109 50.582 89.995 47.001 83.974z" fill="#f3d4cf" stroke="#c5796d" stroke-width="1.5" opacity="1"></path><path id="SvgjsPath4059" d="M44.197 97.997c-0.132-0.548 0.007-1.47 0.142-2.362 0.124-0.812 0.24-1.579 0.169-2.121 -0.267-2.032-1.773-5.893-2.757-7.985 -1.132-2.407-2.963-5.439-5.262-6.221 -0.95-0.324-1.575 0.063-1.938 0.456 -0.266 0.289-0.325 0.627-0.238 0.667 0.086 0.04 0.285-0.24 0.572-0.504 0.235-0.216 0.579-0.402 1.051-0.363 -0.19 1.011-1.167 6.49-0.744 10.225 0.333 2.938 1.593 5.131 1.79 5.46 0.029 0.346 0.077 0.685 0.148 1.014 0.929 4.287 4.971 9.163 6.378 10.758 0.259 0.295 0.531 0.47 0.598 0.398 0.066-0.072-0.094-0.364-0.353-0.66 -1.388-1.585-5.391-6.442-6.289-10.579 -0.952-4.389 2.318-10.896 3.048-12.272 0.371 0.646 0.687 1.267 0.93 1.785 0.19 0.406 0.402 0.881 0.619 1.395 -0.429 0.718-3.434 5.958-2.338 10.153 0.406 1.546 2.235 3.54 3.447 4.086 0.667 0.301 0.919 0.75 1.209 1.271 0.336 0.604 0.718 1.288 1.828 1.784 0.225 0.102 0.429 0.142 0.61 0.142 0.313 0 0.551-0.126 0.725-0.276 0.018 0.266 0.017 0.604 0.009 0.917 -0.012 0.404 0.042 0.737 0.137 0.745 0.094 0.008 0.196-0.313 0.207-0.717 0.016-0.496 0.013-1.11-0.072-1.403 -0.248-0.865-1.008-1.841-1.813-2.875C45.221 99.896 44.403 98.844 44.197 97.997zM36.95 94.196c-2.177-6.731 0.656-12.54 1.144-13.464 0.85 0.775 1.6 1.811 2.21 2.824C39.86 84.365 37.041 89.669 36.95 94.196zM46.341 104.042c-1.004-0.447-1.339-1.051-1.666-1.633 -0.293-0.527-0.598-1.072-1.369-1.42 -0.168-0.075-0.352-0.191-0.542-0.323 -2.486-5.906 0.272-8.488 0.963-9.017 0.211 0.722 0.369 1.384 0.439 1.915 0.063 0.488-0.052 1.263-0.167 2.012 -0.142 0.929-0.286 1.89-0.137 2.512 0.226 0.926 1.069 2.009 1.884 3.057 0.723 0.929 1.466 1.888 1.721 2.67C47.359 103.972 47.017 104.345 46.341 104.042z" fill="#c5796d" stroke-width="none" opacity="1"></path></g><g id="svga-group-ears-right" ><path id="SvgjsPath4060" d="M152.736 83.974c1.377-2.313 5.639-7.997 9.98-6.603 2.75 0.882 3.293 3.765 3.736 6.311 0.588 3.386-0.471 10.083-1.389 12.503 -0.881 2.325-3.533 6.816-5.266 8.527 -2.129 2.1-4.775 8.793-5.193 9.487 -0.658 1.097-1.535 2.745-4.121 2.538 -2.854-0.229-4.584-1.742-5.857-1.999C141.484 114.109 149.156 89.995 152.736 83.974z" fill="#f3d4cf" stroke="#c5796d" stroke-width="1.5" opacity="1"></path><path id="SvgjsPath4061" d="M153.727 100.913c-0.805 1.033-1.564 2.009-1.813 2.875 -0.086 0.293-0.088 0.907-0.072 1.403 0.012 0.404 0.113 0.725 0.207 0.717s0.148-0.341 0.137-0.745c-0.008-0.313-0.008-0.651 0.01-0.917 0.174 0.15 0.412 0.276 0.725 0.276 0.182 0 0.385-0.04 0.609-0.142 1.109-0.496 1.492-1.18 1.828-1.784 0.289-0.52 0.543-0.969 1.209-1.271 1.213-0.546 3.041-2.54 3.447-4.086 1.096-4.194-1.908-9.435-2.338-10.153 0.217-0.513 0.43-0.988 0.619-1.395 0.244-0.518 0.559-1.139 0.93-1.785 0.73 1.377 4 7.883 3.049 12.272 -0.896 4.137-4.9 8.994-6.289 10.579 -0.258 0.296-0.418 0.588-0.352 0.66 0.066 0.071 0.338-0.104 0.598-0.398 1.406-1.596 5.449-6.471 6.379-10.758 0.07-0.329 0.117-0.668 0.146-1.014 0.197-0.329 1.459-2.523 1.791-5.46 0.422-3.735-0.555-9.214-0.744-10.225 0.473-0.039 0.814 0.146 1.051 0.363 0.287 0.264 0.486 0.544 0.572 0.504s0.027-0.378-0.238-0.667c-0.363-0.393-0.988-0.779-1.938-0.456 -2.299 0.782-4.131 3.814-5.262 6.221 -0.984 2.093-2.49 5.953-2.758 7.985 -0.072 0.542 0.045 1.309 0.17 2.121 0.135 0.892 0.273 1.814 0.141 2.362C155.336 98.844 154.518 99.896 153.727 100.913zM159.434 83.555c0.611-1.013 1.361-2.049 2.211-2.824 0.488 0.925 3.32 6.733 1.145 13.464C162.697 89.669 159.879 84.365 159.434 83.555zM152.27 103.816c0.254-0.782 0.998-1.741 1.721-2.67 0.816-1.048 1.658-2.131 1.885-3.057 0.148-0.622 0.004-1.583-0.137-2.512 -0.115-0.749-0.23-1.524-0.166-2.012 0.068-0.531 0.227-1.193 0.438-1.915 0.691 0.529 3.449 3.111 0.965 9.017 -0.191 0.132-0.375 0.248-0.543 0.323 -0.771 0.348-1.074 0.893-1.369 1.42 -0.326 0.582-0.662 1.186-1.666 1.633C152.721 104.345 152.379 103.972 152.27 103.816z" fill="#c5796d" stroke-width="none" opacity="1"></path></g><g id="svga-group-faceshape-wrap" ><g id="svga-group-faceshape-single" ><path id="SvgjsPath3965" d="M100.002 0.867C66.384 0.919 39.082 28.09 39.134 61.564c0.008 5.316 0.704 10.471 2.002 15.382h0.001C41.15 77 52.68 114.915 55.158 127.369c1.382 6.945 9.063 15.403 16.531 20.513 6.967 4.767 11.263 11.388 28.313 11.388s21.346-6.621 28.313-11.388c7.468-5.109 15.149-13.567 16.531-20.513 2.479-12.454 14.009-50.37 14.02-50.423h0.002c1.298-4.911 1.994-10.066 2.002-15.382C160.923 28.09 133.62 0.919 100.002 0.867z" fill="#f3d4cf" stroke-width="none" opacity="1"></path><path id="SvgjsPath3966" d="M146.772 22.738c7.478 10.183 11.917 22.87 11.898 36.626 -0.009 5.316-0.679 10.471-1.93 15.382h-0.002c-0.011 0.053-11.124 37.969-13.512 50.423 -1.335 6.945-8.737 15.403-15.935 20.513 -6.718 4.767-10.854 11.388-27.291 11.388 -16.434 0-20.575-6.621-27.291-11.388 -7.197-5.109-14.602-13.567-15.931-20.513 -2.391-12.454-13.504-50.37-13.515-50.423h0c-1.252-4.911-1.922-10.066-1.931-15.382 -0.021-13.752 4.416-26.435 11.889-36.617 -8.812 10.525-14.112 24.056-14.089 38.817 0.008 5.316 0.704 10.471 2.002 15.382h0.001C41.15 77 52.68 114.915 55.158 127.369c1.382 6.945 9.063 15.403 16.531 20.513 6.967 4.767 11.263 11.388 28.313 11.388s21.346-6.621 28.313-11.388c7.468-5.109 15.149-13.567 16.531-20.513 2.479-12.454 14.009-50.37 14.02-50.423h0.002c1.298-4.911 1.994-10.066 2.002-15.382C160.894 46.799 155.589 33.264 146.772 22.738z" fill="#ebc3bd" stroke-width="none" opacity="1"></path><path id="SvgjsPath3967" d="M100.002 0.867C66.384 0.919 39.082 28.09 39.134 61.564c0.008 5.316 0.704 10.471 2.002 15.382h0.001C41.15 77 52.68 114.915 55.158 127.369c1.382 6.945 9.063 15.403 16.531 20.513 6.967 4.767 11.263 11.388 28.313 11.388s21.346-6.621 28.313-11.388c7.468-5.109 15.149-13.567 16.531-20.513 2.479-12.454 14.009-50.37 14.02-50.423h0.002c1.298-4.911 1.994-10.066 2.002-15.382C160.923 28.09 133.62 0.919 100.002 0.867z" fill="none" stroke="#c5796d" stroke-width="1.5" opacity="1"></path></g></g><g id="svga-group-mouth-single" ><path id="SvgjsPath4006" d="M100.002 141.248c-4.158 0-5.133-3.404-5.133-3.404 5.5 2.12 10.267-0.146 10.267-0.146S103.659 141.248 100.002 141.248z" fill="url(#SvgjsLinearGradient4007)" opacity="1"></path><path id="SvgjsPath4010" d="M86.803 131.94c2.756-0.951 6.973-2.692 9.166-2.789 1.133-0.052 2.351 0.87 3.574 1.165 0.851 0.206 3.264-1.156 4.13-1.165 2.272-0.024 7.06 1.838 9.502 2.789 0.135 0.054 0 0 0 0s-5.789 6.953-13.185 6.953C91.618 138.894 86.803 131.94 86.803 131.94S86.666 131.989 86.803 131.94z" fill="#f771a9" stroke="#e85391" stroke-width="0.75" opacity="1"></path><path id="SvgjsPath4011" d="M113.541 131.736c-0.048-0.164-0.482-0.367-0.653-0.359 -0.311 0.017-0.672 0.396-1.313 0.41 -0.742 0.018-4.679 0.61-5.736 0.54 -2.129-0.142-3.824 0.666-5.848 0.666 -2.025 0-3.868-0.882-5.996-0.739 -1.057 0.072-4.847-0.448-5.591-0.467 -0.643-0.015-0.892-0.411-1.166-0.464 -0.192-0.036-0.663 0.166-0.757 0.338 -0.083 0.149 0.092 0.67 0.209 0.794 0.285 0.297 1.136 0.242 1.698 0.256 0.777 0.017 4.577 0.538 5.65 0.466 2.081-0.141 3.936 0.822 5.952 0.822s3.725-0.889 5.806-0.748c1.071 0.071 5.015-0.524 5.793-0.54 0.563-0.014 1.366-0.061 1.654-0.292C113.379 132.311 113.59 131.904 113.541 131.736z" fill="#c92066" stroke-width="none" opacity="1"></path><path id="SvgjsPath4012" d="M99.989 137.352c-3.37 0-6.645-1.153-9.241-3.305 1.307-0.072 2.652-0.277 3.961-0.22 1.613 0.07 3.144 0.707 4.756 0.813 1.742 0.116 3.358-0.487 5.064-0.694 1.422-0.17 3.664-0.674 5.091-0.622C107.068 135.28 103.244 137.352 99.989 137.352zM104.562 131.739c1.314-0.037 3.414-0.532 4.724-0.437 -1.405-0.759-3.657-0.941-5.243-1.247 -1.366-0.266-2.738 0.791-4.081 0.968 -1.514 0.199-2.65-1.239-4.119-1.288 -1.593 0.017-3.233 0.991-4.634 1.65 1.284-0.034 2.607-0.176 3.886-0.012 1.566 0.199 3.069 0.817 4.655 0.87C101.373 132.299 102.939 131.782 104.562 131.739z" fill="#ff8ebd" stroke-width="none" opacity="1"></path><path id="SvgjsPath4013" d="M99.941 136.4c-2.029 0-4.007-0.702-5.707-2.002 0.38-0.038 0.764-0.067 1.133-0.067 0.117 0 0.234 0.004 0.351 0.011 0.609 0.032 1.209 0.207 1.846 0.393 0.618 0.178 1.256 0.363 1.923 0.42 0.132 0.01 0.264 0.015 0.395 0.015 0.819 0 1.596-0.204 2.348-0.4 0.477-0.125 0.928-0.243 1.392-0.313 0.253-0.04 0.527-0.059 0.837-0.059 0.268 0 0.544 0.015 0.818 0.036C103.862 135.485 102.03 136.4 99.941 136.4z" fill="#ffa8cc" stroke-width="none" opacity="1"></path></g><g id="svga-group-eyes-left" ><g id="svga-group-eyesback-left"><path id="SvgjsPath3757" d="M86.929 86.347c0.161 0.571 0.257 1.157 0.257 1.758 0 1.481-0.523 2.881-1.44 4.135 -4.077 0.038-16.966 0.706-18.935-0.303 -2.813-1.441-5.323-7.369-5.506-8.827C71.3 77.36 78.675 78.479 86.929 86.347z" fill="url(#SvgjsRadialGradient3758)" opacity="1"></path></g><g id="svga-group-eyesiriswrapper-left" transform="translate(0 0.5)"><g id="svga-group-eyesiriscontrol-left" ><g id="svga-group-eyesiris-left" ><path id="SvgjsPath3837" d="M83.5 87c0 4.694-3.806 8.5-8.499 8.5 -4.694 0-8.501-3.806-8.501-8.5l0 0c0-4.694 3.807-8.5 8.501-8.5C79.694 78.499 83.5 82.305 83.5 87L83.5 87z" fill="#8ab42d" stroke-width="none" opacity="1"></path><path id="SvgjsPath3838" d="M74.048 78.595c-0.033 0.004-0.066 0.008-0.101 0.012 0.041 0.191 0.081 0.384 0.12 0.575C74.06 78.987 74.055 78.789 74.048 78.595zM74.066 79.18c0.099 2.793 0.262 5.282 0.732 6.183C75.047 84.377 74.625 81.92 74.066 79.18zM74.8 85.365c-0.061 0.236-0.153 0.397-0.294 0.452 -0.142 0.053-0.319-0.008-0.521-0.146 0.058 0.236 0.052 0.422-0.051 0.537 -0.102 0.114-0.285 0.142-0.527 0.11 0.16 0.184 0.242 0.353 0.206 0.5 -0.039 0.148-0.189 0.258-0.415 0.343 0.225 0.088 0.376 0.199 0.411 0.347 0.036 0.148-0.046 0.315-0.205 0.498 0.241-0.029 0.426 0.001 0.525 0.115 0.101 0.114 0.106 0.301 0.05 0.537 0.199-0.137 0.376-0.197 0.518-0.142 0.143 0.053 0.234 0.216 0.291 0.454 0.114-0.215 0.243-0.353 0.396-0.368 0.148-0.02 0.307 0.084 0.466 0.267 0.002-0.244 0.053-0.423 0.181-0.51 0.124-0.086 0.311-0.069 0.537 0.018 -0.11-0.216-0.148-0.398-0.078-0.534 0.071-0.135 0.245-0.207 0.487-0.235 -0.199-0.14-0.321-0.283-0.318-0.436 -0.001-0.153 0.119-0.296 0.321-0.434 -0.241-0.03-0.412-0.103-0.484-0.237 -0.07-0.135-0.031-0.319 0.081-0.535 -0.229 0.085-0.413 0.102-0.538 0.016 -0.126-0.086-0.177-0.267-0.178-0.51 -0.158 0.182-0.316 0.282-0.468 0.262C75.041 85.714 74.911 85.58 74.8 85.365zM75.66 85.471c0.679-0.758 1.446-3.13 2.224-5.813C76.674 82.174 75.662 84.453 75.66 85.471zM77.883 79.657c0.085-0.172 0.172-0.348 0.253-0.524 -0.03-0.011-0.06-0.024-0.09-0.037C77.992 79.284 77.938 79.472 77.883 79.657zM76.377 85.965c0.953-0.357 2.736-2.101 4.671-4.115C78.808 83.517 76.851 85.065 76.377 85.965zM81.048 81.851c0.142-0.106 0.287-0.213 0.433-0.318 -0.021-0.025-0.043-0.047-0.06-0.07C81.297 81.59 81.174 81.722 81.048 81.851zM76.777 86.738c1.01 0.125 3.399-0.591 6.052-1.475C80.068 85.698 77.617 86.159 76.777 86.738zM82.829 85.263c0.156-0.022 0.318-0.048 0.478-0.073 -0.007-0.026-0.013-0.054-0.02-0.081C83.135 85.16 82.979 85.212 82.829 85.263zM76.775 87.606c0.836 0.583 3.284 1.057 6.038 1.505C80.171 88.214 77.786 87.484 76.775 87.606zM82.813 89.111c0.135 0.047 0.271 0.095 0.404 0.138 0.007-0.024 0.013-0.047 0.018-0.071C83.098 89.158 82.954 89.135 82.813 89.111zM76.367 88.375c0.471 0.902 2.42 2.462 4.649 4.142C79.092 90.492 77.32 88.737 76.367 88.375zM81.018 92.514c0.083 0.087 0.17 0.179 0.253 0.268 0.014-0.017 0.027-0.031 0.043-0.046C81.215 92.662 81.113 92.587 81.018 92.514zM75.652 88.867c-0.004 1.019 0.995 3.302 2.191 5.827C77.079 92.006 76.327 89.628 75.652 88.867zM77.844 94.694c0.03 0.106 0.062 0.215 0.09 0.324 0.021-0.008 0.036-0.015 0.055-0.02C77.941 94.896 77.892 94.793 77.844 94.694zM74.788 88.968c-0.476 0.902-0.653 3.386-0.768 6.178C74.594 92.413 75.031 89.958 74.788 88.968zM74.021 95.146c-0.023 0.106-0.044 0.214-0.066 0.323 0.02 0.004 0.035 0.005 0.055 0.007C74.013 95.368 74.018 95.254 74.021 95.146zM73.979 88.657c-0.844 0.576-2.154 2.697-3.553 5.114C72.204 91.617 73.733 89.645 73.979 88.657zM70.427 93.771c-0.074 0.09-0.152 0.185-0.229 0.274 0.018 0.012 0.034 0.02 0.053 0.034C70.309 93.976 70.369 93.873 70.427 93.771zM73.405 88.006c-1.015 0.119-3.16 1.385-5.522 2.875C70.46 89.801 72.726 88.768 73.405 88.006zM67.883 90.884c-0.122 0.051-0.247 0.102-0.372 0.156 0.009 0.019 0.021 0.038 0.033 0.057C67.658 91.027 67.771 90.954 67.883 90.884zM73.198 87.161c-0.951-0.365-3.441-0.238-6.227-0.016C69.755 87.383 72.244 87.521 73.198 87.161zM66.972 87.145c-0.151-0.014-0.308-0.028-0.457-0.041 -0.001 0.027-0.003 0.053-0.001 0.08C66.669 87.169 66.822 87.156 66.972 87.145zM73.407 86.318c-0.67-0.763-2.932-1.809-5.499-2.905C70.259 84.915 72.397 86.196 73.407 86.318zM67.908 83.413c-0.147-0.095-0.297-0.189-0.446-0.285 -0.013 0.026-0.026 0.053-0.041 0.078C67.585 83.276 67.75 83.344 67.908 83.413zM73.985 85.67c-0.239-0.989-1.758-2.967-3.521-5.132C71.849 82.963 73.147 85.09 73.985 85.67zM70.465 80.538c-0.095-0.163-0.188-0.329-0.281-0.494 -0.026 0.018-0.055 0.037-0.079 0.054C70.224 80.245 70.348 80.393 70.465 80.538z" fill="url(#SvgjsRadialGradient3839)" opacity="1"></path><path id="SvgjsPath3842" d="M76.255 78.622c-0.034-0.004-0.066-0.01-0.1-0.014 -0.011 0.196-0.022 0.393-0.034 0.586C76.164 79.004 76.211 78.812 76.255 78.622zM76.12 79.193c-0.627 2.724-1.114 5.17-0.892 6.162C75.724 84.467 75.95 81.984 76.12 79.193zM75.229 85.356c-0.119 0.212-0.25 0.344-0.401 0.36 -0.15 0.014-0.306-0.091-0.464-0.276 -0.006 0.243-0.06 0.421-0.188 0.505 -0.128 0.083-0.313 0.063-0.539-0.03 0.107 0.219 0.143 0.403 0.069 0.536 -0.075 0.133-0.249 0.201-0.489 0.224 0.194 0.144 0.312 0.289 0.308 0.441 -0.003 0.152-0.126 0.292-0.327 0.428 0.24 0.034 0.41 0.111 0.478 0.247 0.067 0.136 0.025 0.318-0.091 0.532 0.229-0.081 0.414-0.093 0.537-0.003 0.123 0.088 0.17 0.27 0.164 0.514 0.166-0.177 0.325-0.278 0.478-0.253 0.148 0.02 0.274 0.16 0.382 0.379 0.064-0.236 0.16-0.396 0.306-0.447 0.143-0.051 0.318 0.014 0.515 0.157 -0.051-0.237-0.041-0.423 0.063-0.536s0.29-0.136 0.532-0.102c-0.157-0.187-0.238-0.356-0.195-0.504 0.039-0.148 0.192-0.255 0.423-0.336 -0.226-0.091-0.372-0.206-0.407-0.354 -0.032-0.149 0.053-0.316 0.218-0.495 -0.243 0.023-0.427-0.009-0.524-0.125 -0.099-0.115-0.102-0.303-0.039-0.538 -0.201 0.134-0.38 0.19-0.521 0.132C75.37 85.756 75.281 85.593 75.229 85.356zM76.033 85.683c0.852-0.558 2.206-2.65 3.652-5.04C77.865 82.76 76.298 84.699 76.033 85.683zM79.685 80.641c0.126-0.145 0.255-0.292 0.38-0.44 -0.027-0.019-0.052-0.04-0.078-0.06C79.886 80.31 79.785 80.477 79.685 80.641zM76.597 86.345c1.013-0.099 3.187-1.322 5.577-2.767C79.578 84.609 77.287 85.598 76.597 86.345zM82.173 83.579c0.165-0.065 0.333-0.131 0.501-0.195 -0.014-0.029-0.029-0.056-0.04-0.083C82.481 83.392 82.328 83.487 82.173 83.579zM76.783 87.194c0.943 0.382 3.437 0.309 6.227 0.142C80.231 87.042 77.745 86.853 76.783 87.194zM83.01 87.336c0.158 0.019 0.32 0.036 0.48 0.053 0.001-0.027 0.002-0.055 0.003-0.083C83.332 87.316 83.168 87.326 83.01 87.336zM76.558 88.033c0.655 0.78 2.898 1.871 5.442 3.017C79.679 89.499 77.565 88.177 76.558 88.033zM82 91.049c0.117 0.08 0.236 0.161 0.354 0.238 0.013-0.021 0.024-0.042 0.035-0.063C82.262 91.168 82.129 91.109 82 91.049zM75.964 88.67c0.221 0.993 1.699 3.004 3.419 5.205C78.048 91.419 76.791 89.266 75.964 88.67zM79.384 93.872c0.059 0.106 0.117 0.217 0.176 0.325 0.018-0.013 0.034-0.023 0.053-0.034C79.536 94.065 79.458 93.967 79.384 93.872zM75.146 88.96c-0.267 0.982 0.107 3.447 0.608 6.195C75.711 92.361 75.601 89.87 75.146 88.96zM75.754 95.155c0.002 0.11 0.004 0.224 0.004 0.337 0.021-0.003 0.038-0.005 0.058-0.005C75.796 95.376 75.775 95.264 75.754 95.155zM74.285 88.834c-0.693 0.748-1.508 3.102-2.341 5.769C73.205 92.11 74.265 89.853 74.285 88.834zM71.944 94.603c-0.05 0.096-0.099 0.195-0.147 0.295 0.017 0.008 0.032 0.013 0.051 0.021C71.879 94.815 71.913 94.707 71.944 94.603zM73.584 88.324c-0.964 0.338-2.779 2.048-4.756 4.021C71.104 90.724 73.091 89.215 73.584 88.324zM68.828 92.345c-0.095 0.067-0.194 0.138-0.29 0.206 0.014 0.016 0.027 0.028 0.041 0.045C68.661 92.511 68.746 92.428 68.828 92.345zM73.197 87.546c-1.01-0.148-3.409 0.521-6.078 1.349C69.889 88.518 72.345 88.106 73.197 87.546zM67.119 88.897c-0.131 0.018-0.265 0.034-0.4 0.054 0.005 0.021 0.011 0.042 0.018 0.063C66.865 88.977 66.993 88.936 67.119 88.897zM73.217 86.677c-0.824-0.599-3.263-1.121-6.01-1.627C69.833 86 72.202 86.777 73.217 86.677zM67.207 85.05c-0.143-0.052-0.29-0.106-0.432-0.158 -0.008 0.026-0.016 0.051-0.021 0.077C66.907 84.995 67.06 85.022 67.207 85.05zM73.637 85.917c-0.45-0.911-2.363-2.506-4.561-4.23C70.959 83.747 72.693 85.538 73.637 85.917zM69.076 81.688c-0.118-0.13-0.236-0.26-0.355-0.391 -0.021 0.022-0.041 0.044-0.061 0.065C68.8 81.471 68.941 81.58 69.076 81.688zM74.363 85.44c0.024-1.017-0.93-3.321-2.073-5.868C72.999 82.273 73.704 84.663 74.363 85.44zM72.29 79.572c-0.049-0.182-0.096-0.366-0.144-0.55 -0.029 0.01-0.062 0.021-0.09 0.032C72.134 79.227 72.214 79.401 72.29 79.572z" fill="url(#SvgjsRadialGradient3843)" opacity="1"></path><path id="SvgjsPath3846" d="M78.334 87c0 1.842-1.492 3.333-3.333 3.333S71.666 88.841 71.666 87c0-1.841 1.494-3.334 3.335-3.334C76.844 83.666 78.334 85.159 78.334 87z" fill="#8ab42d" stroke-width="none" opacity="1"></path><path id="SvgjsPath3847" d="M78.334 87c0 1.842-1.492 3.333-3.333 3.333S71.666 88.841 71.666 87c0-1.841 1.494-3.334 3.335-3.334C76.844 83.666 78.334 85.159 78.334 87z" fill="#000000" stroke-width="none" opacity="0.9"></path><path id="SvgjsPath3848" d="M70.35 90.893c0.636-0.427 1.5-0.255 1.927 0.38 0.427 0.637 0.258 1.5-0.379 1.927 -0.638 0.429-1.5 0.258-1.927-0.378C69.544 92.185 69.713 91.32 70.35 90.893L70.35 90.893z" fill="url(#SvgjsLinearGradient3849)" opacity="0.5"></path><path id="SvgjsPath3852" d="M77.635 86.536c-0.356 0.53-1.373 0.468-2.275-0.136 -0.903-0.605-1.346-1.526-0.991-2.055l0.001-0.001c0.354-0.53 1.372-0.469 2.274 0.137 0.903 0.604 1.346 1.524 0.992 2.054C77.635 86.536 77.635 86.536 77.635 86.536z" fill="url(#SvgjsLinearGradient3853)" opacity="0.5"></path><path id="SvgjsPath3856" d="M81.682 85.121c-0.806 1.237-2.884 1.31-4.641 0.166 -1.756-1.145-2.527-3.075-1.722-4.311 0.806-1.235 2.884-1.31 4.641-0.166C81.715 81.956 82.485 83.887 81.682 85.121L81.682 85.121z" fill="url(#SvgjsLinearGradient3857)" opacity="0.75"></path></g></g></g><g id="svga-group-eyesfront-left"><path id="SvgjsPath3782" d="M56 88c0 13.808 8.06 24.999 18 24.999S92 101.808 92 88c0-13.809-8.06-25.001-18-25.001S56 74.191 56 88zM61.305 83.109c9.995-5.749 17.37-4.63 25.624 3.237 0.161 0.571 0.257 1.157 0.257 1.758 0 1.481-0.523 2.881-1.44 4.135 -4.077 0.038-16.966 0.706-18.935-0.303C63.998 90.496 61.487 84.568 61.305 83.109z" fill="#f3d4cf" stroke-width="none" opacity="1"></path><path id="SvgjsPath3783" d="M61.409 83.595c0.522 1.979 2.833 7.026 5.401 8.342 1.969 1.009 14.857 0.341 18.935 0.303 0.917-1.253 1.44-2.653 1.44-4.135 0-0.601-0.096-1.187-0.257-1.758 -8.166-7.784-15.476-8.95-25.31-3.407 1.968-5.724 8.522-9.952 16.34-9.987 9.393-0.04 17.018 5.981 17.041 13.451 0.023 7.469-7.572 13.554-16.961 13.596 -9.393 0.04-17.016-5.981-17.039-13.45C60.997 85.534 61.146 84.547 61.409 83.595z" fill="url(#SvgjsRadialGradient3784)" opacity="1"></path><path id="SvgjsPath3788" d="M66.811 91.937c-2.813-1.441-5.323-7.369-5.506-8.827 9.995-5.749 17.37-4.63 25.624 3.237 0.161 0.571 0.257 1.157 0.257 1.758 0 1.481-0.523 2.881-1.44 4.135C81.668 92.277 68.779 92.945 66.811 91.937z" fill="url(#SvgjsRadialGradient3789)" opacity="1"></path><path id="SvgjsPath3792" d="M61.338 79.989c3.414-1.34 14.297-4.254 19.581-1.339C73.348 76.293 65.782 78.817 61.338 79.989zM83.487 80.982c1.651 0.614 2.711 1.961 3.462 3.018C85.852 82.836 84.318 81.606 83.487 80.982z" fill="#c5796d" stroke-width="none" opacity="1"></path><path id="SvgjsPath3793" d="M84.061 80.665C75.721 78 69.195 78.032 60.873 81.46c-3.914 0.541-5.456 0.196-7.438-0.252 1.121 0.955 2.072 1.884 4.313 2.033 -1.188 0.298-1.629 0.301-2.938 0.361 1.983 0.619 3.232 1.038 5.29 1.375 -0.863 0.409-2.028 0.538-3.103 0.438 0.925 0.726 2.301 0.661 3.688 1.124 3.867 5.08 4.676 6.192 5.875 6.251 10.059 0.608 16.311-0.248 20.313-0.813 -1.499-0.19-17.826 0.781-20.063-0.313 -2.813-1.375-5.323-7.031-5.506-8.423 10.251-5.626 17.743-4.379 26.256 3.659 -1.948-2.957-4.397-4.875-7.75-6.485L84.061 80.665z" fill="#000000" stroke-width="none" opacity="1"></path></g></g><g id="svga-group-eyes-right" ><g id="svga-group-eyesback-right"><path id="SvgjsPath3765" d="M113.071 86.347c-0.161 0.571-0.257 1.157-0.257 1.758 0 1.481 0.523 2.881 1.44 4.135 4.077 0.038 16.966 0.706 18.935-0.303 2.813-1.441 5.323-7.369 5.506-8.827C128.7 77.36 121.325 78.479 113.071 86.347z" fill="url(#SvgjsRadialGradient3766)" opacity="1"></path></g><g id="svga-group-eyesiriswrapper-right" transform="translate(0 0.5)"><g id="svga-group-eyesiriscontrol-right" ><g id="svga-group-eyesiris-right" ><path id="SvgjsPath3860" d="M133.5 87c0 4.694-3.806 8.5-8.499 8.5 -4.694 0-8.501-3.806-8.501-8.5l0 0c0-4.694 3.807-8.5 8.501-8.5C129.694 78.499 133.5 82.305 133.5 87L133.5 87z" fill="#8ab42d" stroke-width="none" opacity="1"></path><path id="SvgjsPath3861" d="M124.048 78.595c-0.033 0.004-0.066 0.008-0.101 0.012 0.041 0.191 0.081 0.384 0.12 0.575C124.06 78.987 124.055 78.789 124.048 78.595zM124.066 79.18c0.099 2.793 0.262 5.282 0.732 6.183C125.047 84.377 124.625 81.92 124.066 79.18zM124.8 85.365c-0.061 0.236-0.153 0.397-0.294 0.452 -0.142 0.053-0.319-0.008-0.521-0.146 0.058 0.236 0.052 0.422-0.051 0.537 -0.102 0.114-0.285 0.142-0.527 0.11 0.16 0.184 0.242 0.353 0.206 0.5 -0.039 0.148-0.189 0.258-0.415 0.343 0.225 0.088 0.376 0.199 0.411 0.347 0.036 0.148-0.046 0.315-0.205 0.498 0.241-0.029 0.426 0.001 0.525 0.115 0.101 0.114 0.106 0.301 0.05 0.537 0.199-0.137 0.376-0.197 0.518-0.142 0.143 0.053 0.234 0.216 0.291 0.454 0.114-0.215 0.243-0.353 0.396-0.368 0.148-0.02 0.307 0.084 0.466 0.267 0.002-0.244 0.053-0.423 0.181-0.51 0.124-0.086 0.311-0.069 0.537 0.018 -0.11-0.216-0.148-0.398-0.078-0.534 0.071-0.135 0.245-0.207 0.487-0.235 -0.199-0.14-0.321-0.283-0.318-0.436 -0.001-0.153 0.119-0.296 0.321-0.434 -0.241-0.03-0.412-0.103-0.484-0.237 -0.07-0.135-0.031-0.319 0.081-0.535 -0.229 0.085-0.413 0.102-0.538 0.016 -0.126-0.086-0.177-0.267-0.178-0.51 -0.158 0.182-0.316 0.282-0.468 0.262C125.041 85.714 124.911 85.58 124.8 85.365zM125.66 85.471c0.679-0.758 1.446-3.13 2.224-5.813C126.674 82.174 125.662 84.453 125.66 85.471zM127.883 79.657c0.085-0.172 0.172-0.348 0.253-0.524 -0.03-0.011-0.06-0.024-0.09-0.037C127.992 79.284 127.938 79.472 127.883 79.657zM126.377 85.965c0.953-0.357 2.736-2.101 4.671-4.115C128.808 83.517 126.851 85.065 126.377 85.965zM131.048 81.851c0.142-0.106 0.287-0.213 0.433-0.318 -0.021-0.025-0.043-0.047-0.06-0.07C131.297 81.59 131.174 81.722 131.048 81.851zM126.777 86.738c1.01 0.125 3.399-0.591 6.052-1.475C130.068 85.698 127.617 86.159 126.777 86.738zM132.829 85.263c0.156-0.022 0.318-0.048 0.478-0.073 -0.007-0.026-0.013-0.054-0.02-0.081C133.135 85.16 132.979 85.212 132.829 85.263zM126.775 87.606c0.836 0.583 3.284 1.057 6.038 1.505C130.171 88.214 127.786 87.484 126.775 87.606zM132.813 89.111c0.135 0.047 0.271 0.095 0.404 0.138 0.007-0.024 0.013-0.047 0.018-0.071C133.098 89.158 132.954 89.135 132.813 89.111zM126.367 88.375c0.471 0.902 2.42 2.462 4.649 4.142C129.092 90.492 127.32 88.737 126.367 88.375zM131.018 92.514c0.083 0.087 0.17 0.179 0.253 0.268 0.014-0.017 0.027-0.031 0.043-0.046C131.215 92.662 131.113 92.587 131.018 92.514zM125.652 88.867c-0.004 1.019 0.995 3.302 2.191 5.827C127.079 92.006 126.327 89.628 125.652 88.867zM127.844 94.694c0.03 0.106 0.062 0.215 0.09 0.324 0.021-0.008 0.036-0.015 0.055-0.02C127.941 94.896 127.892 94.793 127.844 94.694zM124.788 88.968c-0.476 0.902-0.653 3.386-0.768 6.178C124.594 92.413 125.031 89.958 124.788 88.968zM124.021 95.146c-0.023 0.106-0.044 0.214-0.066 0.323 0.02 0.004 0.035 0.005 0.055 0.007C124.013 95.368 124.018 95.254 124.021 95.146zM123.979 88.657c-0.844 0.576-2.154 2.697-3.553 5.114C122.204 91.617 123.733 89.645 123.979 88.657zM120.427 93.771c-0.074 0.09-0.152 0.185-0.229 0.274 0.018 0.012 0.034 0.02 0.053 0.034C120.309 93.976 120.369 93.873 120.427 93.771zM123.405 88.006c-1.015 0.119-3.16 1.385-5.522 2.875C120.46 89.801 122.726 88.768 123.405 88.006zM117.883 90.884c-0.122 0.051-0.247 0.102-0.372 0.156 0.009 0.019 0.021 0.038 0.033 0.057C117.658 91.027 117.771 90.954 117.883 90.884zM123.198 87.161c-0.951-0.365-3.441-0.238-6.227-0.016C119.755 87.383 122.244 87.521 123.198 87.161zM116.972 87.145c-0.151-0.014-0.308-0.028-0.457-0.041 -0.001 0.027-0.003 0.053-0.001 0.08C116.669 87.169 116.822 87.156 116.972 87.145zM123.407 86.318c-0.67-0.763-2.932-1.809-5.499-2.905C120.259 84.915 122.397 86.196 123.407 86.318zM117.908 83.413c-0.147-0.095-0.297-0.189-0.446-0.285 -0.013 0.026-0.026 0.053-0.041 0.078C117.585 83.276 117.75 83.344 117.908 83.413zM123.985 85.67c-0.239-0.989-1.758-2.967-3.521-5.132C121.849 82.963 123.147 85.09 123.985 85.67zM120.465 80.538c-0.095-0.163-0.188-0.329-0.281-0.494 -0.026 0.018-0.055 0.037-0.079 0.054C120.224 80.245 120.348 80.393 120.465 80.538z" fill="url(#SvgjsRadialGradient3862)" opacity="1"></path><path id="SvgjsPath3865" d="M126.255 78.622c-0.034-0.004-0.066-0.01-0.1-0.014 -0.011 0.196-0.022 0.393-0.034 0.586C126.164 79.004 126.211 78.812 126.255 78.622zM126.12 79.193c-0.627 2.724-1.114 5.17-0.892 6.162C125.724 84.467 125.95 81.984 126.12 79.193zM125.229 85.356c-0.119 0.212-0.25 0.344-0.401 0.36 -0.15 0.014-0.306-0.091-0.464-0.276 -0.006 0.243-0.06 0.421-0.188 0.505 -0.128 0.083-0.313 0.063-0.539-0.03 0.107 0.219 0.143 0.403 0.069 0.536 -0.075 0.133-0.249 0.201-0.489 0.224 0.194 0.144 0.312 0.289 0.308 0.441 -0.003 0.152-0.126 0.292-0.327 0.428 0.24 0.034 0.41 0.111 0.478 0.247 0.067 0.136 0.025 0.318-0.091 0.532 0.229-0.081 0.414-0.093 0.537-0.003 0.123 0.088 0.17 0.27 0.164 0.514 0.166-0.177 0.325-0.278 0.478-0.253 0.148 0.02 0.274 0.16 0.382 0.379 0.064-0.236 0.16-0.396 0.306-0.447 0.143-0.051 0.318 0.014 0.515 0.157 -0.051-0.237-0.041-0.423 0.063-0.536s0.29-0.136 0.532-0.102c-0.157-0.187-0.238-0.356-0.195-0.504 0.039-0.148 0.192-0.255 0.423-0.336 -0.226-0.091-0.372-0.206-0.407-0.354 -0.032-0.149 0.053-0.316 0.218-0.495 -0.243 0.023-0.427-0.009-0.524-0.125 -0.099-0.115-0.102-0.303-0.039-0.538 -0.201 0.134-0.38 0.19-0.521 0.132C125.37 85.756 125.281 85.593 125.229 85.356zM126.033 85.683c0.852-0.558 2.206-2.65 3.652-5.04C127.865 82.76 126.298 84.699 126.033 85.683zM129.685 80.641c0.126-0.145 0.255-0.292 0.38-0.44 -0.027-0.019-0.052-0.04-0.078-0.06C129.886 80.31 129.785 80.477 129.685 80.641zM126.597 86.345c1.013-0.099 3.187-1.322 5.577-2.767C129.578 84.609 127.287 85.598 126.597 86.345zM132.173 83.579c0.165-0.065 0.333-0.131 0.501-0.195 -0.014-0.029-0.029-0.056-0.04-0.083C132.481 83.392 132.328 83.487 132.173 83.579zM126.783 87.194c0.943 0.382 3.437 0.309 6.227 0.142C130.231 87.042 127.745 86.853 126.783 87.194zM133.01 87.336c0.158 0.019 0.32 0.036 0.48 0.053 0.001-0.027 0.002-0.055 0.003-0.083C133.332 87.316 133.168 87.326 133.01 87.336zM126.558 88.033c0.655 0.78 2.898 1.871 5.442 3.017C129.679 89.499 127.565 88.177 126.558 88.033zM132 91.049c0.117 0.08 0.236 0.161 0.354 0.238 0.013-0.021 0.024-0.042 0.035-0.063C132.262 91.168 132.129 91.109 132 91.049zM125.964 88.67c0.221 0.993 1.699 3.004 3.419 5.205C128.048 91.419 126.791 89.266 125.964 88.67zM129.384 93.872c0.059 0.106 0.117 0.217 0.176 0.325 0.018-0.013 0.034-0.023 0.053-0.034C129.536 94.065 129.458 93.967 129.384 93.872zM125.146 88.96c-0.267 0.982 0.107 3.447 0.608 6.195C125.711 92.361 125.601 89.87 125.146 88.96zM125.754 95.155c0.002 0.11 0.004 0.224 0.004 0.337 0.021-0.003 0.038-0.005 0.058-0.005C125.796 95.376 125.775 95.264 125.754 95.155zM124.285 88.834c-0.693 0.748-1.508 3.102-2.341 5.769C123.205 92.11 124.265 89.853 124.285 88.834zM121.944 94.603c-0.05 0.096-0.099 0.195-0.147 0.295 0.017 0.008 0.032 0.013 0.051 0.021C121.879 94.815 121.913 94.707 121.944 94.603zM123.584 88.324c-0.964 0.338-2.779 2.048-4.756 4.021C121.104 90.724 123.091 89.215 123.584 88.324zM118.828 92.345c-0.095 0.067-0.194 0.138-0.29 0.206 0.014 0.016 0.027 0.028 0.041 0.045C118.661 92.511 118.746 92.428 118.828 92.345zM123.197 87.546c-1.01-0.148-3.409 0.521-6.078 1.349C119.889 88.518 122.345 88.106 123.197 87.546zM117.119 88.897c-0.131 0.018-0.265 0.034-0.4 0.054 0.005 0.021 0.011 0.042 0.018 0.063C116.865 88.977 116.993 88.936 117.119 88.897zM123.217 86.677c-0.824-0.599-3.263-1.121-6.01-1.627C119.833 86 122.202 86.777 123.217 86.677zM117.207 85.05c-0.143-0.052-0.29-0.106-0.432-0.158 -0.008 0.026-0.016 0.051-0.021 0.077C116.907 84.995 117.06 85.022 117.207 85.05zM123.637 85.917c-0.45-0.911-2.363-2.506-4.561-4.23C120.959 83.747 122.693 85.538 123.637 85.917zM119.076 81.688c-0.118-0.13-0.236-0.26-0.355-0.391 -0.021 0.022-0.041 0.044-0.061 0.065C118.8 81.471 118.941 81.58 119.076 81.688zM124.363 85.44c0.024-1.017-0.93-3.321-2.073-5.868C122.999 82.273 123.704 84.663 124.363 85.44zM122.29 79.572c-0.049-0.182-0.096-0.366-0.144-0.55 -0.029 0.01-0.062 0.021-0.09 0.032C122.134 79.227 122.214 79.401 122.29 79.572z" fill="url(#SvgjsRadialGradient3866)" opacity="1"></path><path id="SvgjsPath3869" d="M128.334 87c0 1.842-1.492 3.333-3.333 3.333s-3.335-1.492-3.335-3.333c0-1.841 1.494-3.334 3.335-3.334C126.844 83.666 128.334 85.159 128.334 87z" fill="#8ab42d" stroke-width="none" opacity="1"></path><path id="SvgjsPath3870" d="M128.334 87c0 1.842-1.492 3.333-3.333 3.333s-3.335-1.492-3.335-3.333c0-1.841 1.494-3.334 3.335-3.334C126.844 83.666 128.334 85.159 128.334 87z" fill="#000000" stroke-width="none" opacity="0.9"></path><path id="SvgjsPath3871" d="M120.35 90.893c0.636-0.427 1.5-0.255 1.927 0.38 0.427 0.637 0.258 1.5-0.379 1.927 -0.638 0.429-1.5 0.258-1.927-0.378C119.544 92.185 119.713 91.32 120.35 90.893L120.35 90.893z" fill="url(#SvgjsLinearGradient3872)" opacity="0.5"></path><path id="SvgjsPath3875" d="M127.635 86.536c-0.356 0.53-1.373 0.468-2.275-0.136 -0.903-0.605-1.346-1.526-0.991-2.055l0.001-0.001c0.354-0.53 1.372-0.469 2.274 0.137 0.903 0.604 1.346 1.524 0.992 2.054C127.635 86.536 127.635 86.536 127.635 86.536z" fill="url(#SvgjsLinearGradient3876)" opacity="0.5"></path><path id="SvgjsPath3879" d="M131.682 85.121c-0.806 1.237-2.884 1.31-4.641 0.166 -1.756-1.145-2.527-3.075-1.722-4.311 0.806-1.235 2.884-1.31 4.641-0.166C131.715 81.956 132.485 83.887 131.682 85.121L131.682 85.121z" fill="url(#SvgjsLinearGradient3880)" opacity="0.75"></path></g></g></g><g id="svga-group-eyesfront-right"><path id="SvgjsPath3803" d="M126 62.999c-9.94 0-18 11.193-18 25.001 0 13.808 8.06 24.999 18 24.999S144 101.808 144 88C144 74.191 135.94 62.999 126 62.999zM133.189 91.937c-1.969 1.009-14.857 0.341-18.935 0.303 -0.917-1.253-1.44-2.653-1.44-4.135 0-0.601 0.096-1.187 0.257-1.758 8.254-7.868 15.629-8.986 25.624-3.237C138.513 84.568 136.002 90.496 133.189 91.937z" fill="#f3d4cf" stroke-width="none" opacity="1"></path><path id="SvgjsPath3804" d="M138.591 83.595c-0.522 1.979-2.833 7.026-5.401 8.342 -1.969 1.009-14.857 0.341-18.935 0.303 -0.917-1.253-1.44-2.653-1.44-4.135 0-0.601 0.096-1.187 0.257-1.758 8.166-7.784 15.476-8.95 25.31-3.407 -1.968-5.724-8.522-9.952-16.34-9.987 -9.393-0.04-17.018 5.981-17.041 13.451 -0.023 7.469 7.572 13.554 16.961 13.596 9.393 0.04 17.016-5.981 17.039-13.45C139.003 85.534 138.854 84.547 138.591 83.595z" fill="url(#SvgjsRadialGradient3805)" opacity="1"></path><path id="SvgjsPath3809" d="M133.189 91.937c2.813-1.441 5.323-7.369 5.506-8.827 -9.995-5.749-17.37-4.63-25.624 3.237 -0.161 0.571-0.257 1.157-0.257 1.758 0 1.481 0.523 2.881 1.44 4.135C118.332 92.277 131.221 92.945 133.189 91.937z" fill="url(#SvgjsRadialGradient3810)" opacity="1"></path><path id="SvgjsPath3813" d="M119.081 78.65c5.284-2.915 16.167-0.001 19.581 1.339C134.218 78.817 126.652 76.293 119.081 78.65zM113.051 84c0.751-1.057 1.811-2.404 3.462-3.018C115.682 81.606 114.148 82.836 113.051 84z" fill="#c5796d" stroke-width="none" opacity="1"></path><path id="SvgjsPath3814" d="M115.939 80.665c8.34-2.665 14.865-2.633 23.188 0.795 3.914 0.541 5.456 0.196 7.438-0.252 -1.121 0.955-2.072 1.884-4.313 2.033 1.188 0.298 1.629 0.301 2.938 0.361 -1.983 0.619-3.232 1.038-5.29 1.375 0.863 0.409 2.028 0.538 3.103 0.438 -0.925 0.726-2.301 0.661-3.688 1.124 -3.867 5.08-4.676 6.192-5.875 6.251 -10.059 0.608-16.311-0.248-20.313-0.813 1.499-0.19 17.826 0.781 20.063-0.313 2.813-1.375 5.323-7.031 5.506-8.423 -10.251-5.626-17.743-4.379-26.256 3.659 1.948-2.957 4.397-4.875 7.75-6.485L115.939 80.665z" fill="#000000" stroke-width="none" opacity="1"></path></g></g><g id="svga-group-facehighlight-single" ><path id="SvgjsPath2750" d="M140.204 113.007c0.035 22.275-17.995 40.365-40.273 40.396 -22.274 0.036-40.361-17.993-40.396-40.272C59.501 90.857 77.53 72.77 99.808 72.735 122.083 72.701 140.171 90.73 140.204 113.007z" fill="url(#SvgjsRadialGradient2751)" opacity="1"></path><path id="SvgjsPath2754" d="M135,55.999c0,19.329-15.671,35-35,35c-19.329,0-35-15.671-35-35s15.671-35,35-35C119.329,20.999,135,36.67,135,55.999z" fill="url(#SvgjsRadialGradient2755)" opacity="1"></path></g><g id="svga-group-eyebrows-left" ><path id="SvgjsPath3237" d="M54.351 74.996c9.743-15.115 36.491 5.148 38.018-1.191 0.299-1.271-0.407-2.015-1.564-2.492C77.184 65.807 59.156 61.18 54.351 74.996z" fill="#2a232b" stroke-width="none" opacity="1"></path></g><g id="svga-group-eyebrows-right" ><path id="SvgjsPath3238" d="M145.649 74.996c-9.743-15.115-36.491 5.148-38.018-1.191 -0.299-1.271 0.407-2.015 1.564-2.492C122.816 65.807 140.844 61.18 145.649 74.996z" fill="#2a232b" stroke-width="none" opacity="1"></path></g><g id="svga-group-nose-single" ><path id="SvgjsPath4017" d="M97.363 92.602c0 0 0.055 7.962-0.458 9.512 -1.129 3.405-6.123 11.297-5.49 13.486 0.985 3.403 5.817 3.652 8.259 3.771 2.338 0.115 7.091-0.055 7.857-2.267 0.312-0.9-0.361-3.197-0.361-3.197s-2.165 2.228-7.266 1.98c-1.456-0.07-3.824-1.5-3.851-3.517 -0.036-2.734 1.805-5.87 2.135-8.583C98.438 101.726 97.363 92.602 97.363 92.602z" fill="#e4b3ab" stroke-width="none" opacity="1"></path><path id="SvgjsPath4018" d="M104.209 117.032c0.881 0 1.119 0.234 1.119 0.522 0 0.29-0.274 0.735-1.119 0.522 -0.928-0.231-2.548-0.124-2.548-0.124S103.328 117.032 104.209 117.032zM95.8 117.032c-0.881 0.001-1.119 0.236-1.119 0.525 0 0.288 0.265 0.704 1.119 0.521 0.941-0.201 2.548-0.125 2.548-0.125S96.682 117.035 95.8 117.032zM107.169 113.906c0 0 1.22 1.384 0.966 2.847 -0.246 1.421-2.709 2.047-2.709 2.047s1.71-1.085 1.917-2.403C107.439 115.781 107.169 113.906 107.169 113.906zM92.12 112.482c0 0-0.89 1.938-0.632 3.117 0.467 2.13 3.032 2.982 3.032 2.982s-1.601-1.462-2.17-2.753C91.729 114.42 92.12 112.482 92.12 112.482z" fill="#c5796d" stroke-width="none" opacity="1"></path><path id="SvgjsPath4019" d="M104.166 114.937c0.854-0.637 0.939-1 0.763-1.237 -0.176-0.238-0.688-0.389-1.403 0.379 -0.788 0.846-2.502 1.47-2.502 1.47S103.312 115.574 104.166 114.937z" fill="#fff4f3" stroke-width="none" opacity="1"></path></g><g id="svga-group-hair-front" ><path id="SvgjsPath4139" d="M44.483 18.786v192.7h39.633c-0.985-7.894-2.345-15.114-3.827-18.896 -7.734-19.635-34.67-24.746-29.979-50.592l0.186-0.036c5.161 11.272 7.599 17.786 19.622 19.774 -16.696-13.644-13.473-26.335-11.147-42.457 1.357-9.407-1.612-16.768-3.584-24.324 2.337-6.986 3.574-13.578 4.833-21.104C71.469 6.622 121.799 9.658 136.22 52.964c9.121 27.391 1.487 36.087 12.741 53.306 0.534 12.012 3.037 24.947-11.378 41.925 -3.168 3.731-7.858 7.637-11.999 10.247 15.048-1.334 23.306-15.722 28.299-29.979l0.183 0.058c-6.601 55.459-31.788 30.36-34.347 82.965h41.151v-192.7H44.483z" fill="#6b4e40" stroke-width="none" opacity="0.1"></path><path id="SvgjsPath4140" d="M84.239 24.512c0 0 13.507 2.744 15.441 8.394 -9.837-0.448-14.145-3.676-28.021 1.726C74.877 29.073 84.239 24.512 84.239 24.512zM116.354 23.835c0 0-14.886-0.596-16.673 9.07 9.837-0.448 15.855-4.834 29.83 1.466C127.59 28.832 116.354 23.835 116.354 23.835z" fill="#4c2d1e" stroke-width="none" opacity="1"></path><path id="SvgjsPath4141" d="M171.325 103.155c12.474-84.818-28.429-117.88-66.57-108.483C62.686-15.575 30.577 5.914 25.649 64.39c-0.889 20.541 1.352 36.037 1.709 39.729 -2.823 5.811-4.602 12.117-5.334 18.632 -2.28 1.989-4.366 3.558-6.692 5.203 1.216-0.168 3.034-0.383 6.451-1.384 -0.802 22.784 10.506 26.852 9.795 45.72 -0.663 12.739-0.707 13.817 1.769 22.173 6.55 22.107-3.539 20.229-0.849 47.579 31.104-1.338 46.501 4.047 119.532-0.472 1.616-0.101 12.444-0.799 16.533-0.559 -16.247-55.787 11.274-50.916 2.58-79.354C163.35 136.169 184.674 127.674 171.325 103.155zM120.349 232.486c0.313 3.851 0.855 8.563 1.039 9.658 -14.026 0.059-13.942-0.431-36.432-0.219 0.397-13.065 1.519-40.587-1.77-48.975 -8.064-20.475-33.709-27.085-35.086-49.86l0.195-0.036c5.38 11.757 9.681 16.499 22.217 18.573 -17.408-14.226-13.83-25.25-13.383-42.226 0.265-9.903-1.679-17.482-3.736-25.362 2.437-7.282 3.738-14.154 5.041-22.003 5.299-31.981 23.306-56.507 41.03-39.238 0.001-0.001 0.225-0.316 0.225-0.316 0.096 0.134 0.084 0.114 0.202 0.302 15.169-16.919 29.792-2.734 37.781 17.474 11.073 27.991 1.55 37.627 13.281 55.582 0.56 12.526 1.191 25.365-13.838 43.069 -3.304 3.889-7.355 7.003-11.67 9.727 15.688-1.395 25.436-14.789 30.639-29.654l0.191 0.059C141.093 186.96 112.813 144.06 120.349 232.486z" fill="#6b4e40" stroke-width="none" opacity="1"></path><path id="SvgjsPath4142" d="M168.564 241.012c-4.089-0.24-14.917 0.458-16.533 0.559 -7.593 0.47-14.551 0.831-20.979 1.104 0.627-18.603-6.242-38.093 2.549-55.675 4.409-9.624 18.398-19 21.398-31 0.559-2.235 1.938-7.965 2.429-12.944 3.441 21.68-17.092 41.785-12.299 63.68 4.266-14.529 12.416-38.893 17.552-49.096 -0.563 16.096-1.812 20.566-1.289 30.668 4.13-9.095 7.526-16.68 5.584-38.498 0 0 2.598 6.715 4.168 11.848C179.839 190.096 152.317 185.225 168.564 241.012zM161.744 152.235c14.178-34.092-4.985-37.232-10.55-59.281C145.21 69.242 145.199 27.485 124 23c-10.773-2.279-19.332 1.04-24.926 9.434 0.13 0.122 0.26 0.239 0.39 0.366 0.001-0.001 0.225-0.316 0.225-0.316 0.096 0.134 0.084 0.114 0.202 0.302 15.169-16.919 29.792-2.734 37.781 17.474 11.073 27.991 1.55 37.627 13.281 55.582 2.666 23.645-7.074 41.159-25.508 52.796 15.263-7.068 28.199-18.51 30.174-46.749l0.398 0.199C161.471 119.218 164.952 140.731 161.744 152.235zM154.398 45c1.833 21.549 4.026 42.923 16.985 58.268 -0.021-0.038-0.038-0.074-0.059-0.112 0.178-1.207 0.604-4.451 0.76-5.638C166.309 90.678 160.708 78.757 159 66c-2.141-15.982 0.07-34.47-15.9-46C150.849 26.708 154.398 36 154.398 45zM69 18C44 33 50.146 61.473 44.146 84c-3.188 11.97-11.551 22.788-20.646 30.744 -0.609 2.384-1.069 4.813-1.377 7.277C60.299 97.473 45.24 48.478 61.199 30.666c11.568-12.911 25.383-17.769 38.489 1.817C96.415 16.706 79 13 69 18zM82.258 25.4c-7.133 1.456-14.761 9.231-18.923 16.342 -6.467 11.048-7.485 28.27-12.653 46.717 -4.4 15.707-13.998 30.571-33.68 39.249 26.759-5.687 35.423-30.752 36.391-33.667 2.437-7.282 3.738-14.154 5.041-22.003 5.26-31.746 23.042-56.139 40.64-39.604C93.415 26.512 90.127 23.793 82.258 25.4zM68.733 161.296c0.579 0.115 1.161 0.229 1.779 0.332 -17.408-14.226-14.13-25.25-13.683-42.226 0.255-9.563-1.65-17.359-3.626-24.951 -0.523 1.394-1.105 2.744-1.716 4.073C60.569 121.579 41.722 142.818 68.733 161.296zM146.702 161.628c9.171-9.346 13.167-29.969 11.369-43.484 -0.817 4.008-1.474 8.073-2.426 12.056 0.149-0.404 0.296-0.81 0.438-1.217l0.191 0.059c-15.183 57.919-43.463 15.019-35.927 103.445 0.313 3.851 0.855 8.563 1.039 9.658 -14.026 0.059-13.942-0.431-36.432-0.219 0.397-13.065 1.519-40.587-1.77-48.975 -7.75-19.678-44.052-31.323-33.378-62.632 -9.689 13.094-4.59 24.13 1.678 31.309 35.12 44.05 24.852 49.003 26.454 81.047 11.177 0.333 30.093 0.525 48.263-0.105C121.536 179.735 127.328 181.371 146.702 161.628zM39.184 142.011c-1.385-4.846 8.584-15.692 5.366-30.735C43.886 121.43 38.638 129.205 36 138c-3.999 33.884 27.286 39.376 14 74 0-13-2.667-19.437-7.667-31.437C42.333 196.563 49 207 41 223c0 0 2.761-11.765 0.26-17.418C32.879 180.272 39.439 170.276 33 154c-2.838-7.69-8.246-14.15-10.878-27.926 0.677 19.739 10.59 29.425 9.958 46.216 -0.663 12.739-1.207 13.817 1.268 22.173 6.55 22.107-3.539 20.229-0.849 47.579 12.221-0.525 22.025-0.014 33.847 0.527 2.261-24.406 5.03-40.444-7.662-60.172C51.814 171.72 37.453 160.703 39.184 142.011zM45 38c-4.149 20.744-5.556 42.857-18.478 58.357 0.366 3.807 0.713 6.488 0.837 7.762 -0.066 0.136-0.124 0.275-0.188 0.411C51.195 67.57 41.09 47.743 50 28c2-5 6.231-8.566 11-14C52.915 20.828 47 27 45 38zM166.623 102.836C155.162 84.076 155.692 61.634 148 38c-4.507-13.846-24.446-39.649-48.506-6.168 11.159-14.396 23.65-15.006 31.307-10.431 6.19 3.699 10.544 10.145 13.544 17.145 7.068 18.138 5.753 34.787 13.753 52.787 5 12 12.048 22.146 12.416 32.828 -0.332 4.575-3.198 15.689-4.698 19.253 0.479-1.376 6.27-12.165 6.27-18.4C172.085 118.144 170.466 109.127 166.623 102.836zM71.522 9.661c3.306-2.748 25.504-5.422 29.751 11.058C98.289 4.859 78.927 5.073 71.522 9.661zM135.429 8.581c3.49 2.642 2.081 1.447-0.513-0.514 -13.694-8.515-27.51-1.497-33.308 12.366C109.649 3.393 126.768 2.02 135.429 8.581zM147.768 15.763c-17.909-25.073-41.461-16.292-47.154-2.327C108.07-2.146 131.988-5.355 147.768 15.763zM47.118 21.915c-2.079 4.494 4.73-15.523 28.092-20.133 8.363-1.692 19.382-0.871 24.746 6.221C91.351-4.505 59.979-4.11 47.118 21.915zM134.716 12.859c1.24 0.864 2.13 1.626 2.078 1.583 -0.177-0.117-1.063-1.067-2.619-2.098 -11.543-7.674-29.75 1.124-33.899 15.082C105.102 13.747 123.645 5.512 134.716 12.859zM65.39 15.566c-3.443 2.883 4.383-2.277 6.732-2.839 8.25-2.126 24.014-0.522 28.82 11.981C96.429 10.93 77.129 7.13 65.39 15.566z" fill="#5c3d2e" stroke-width="none" opacity="1"></path><path id="SvgjsPath4143" d="M54.287 8.395c-6.063 5.795-8.245 8.121-12.733 15.896C29.969 42.645 29.465 95.483 30.12 75.647 31.003 46.753 33.226 26.926 54.287 8.395zM40.166 46.282c-1.19 10.81 2.133-9.666 3.979-14.112C51.075 15.805 71.717-1.981 91.025 6.798c3.802 1.736 6.471 3.731 7.692 4.555C71.922-9.195 43.586 15.053 40.166 46.282zM140.025 11.352c4.61 4.55 8.293 8.722 8.248 8.671 -3.867-3.539-21.245-34.352-47.079-3.221C113.365 3.41 126.815-1.016 140.025 11.352zM91.268 18.114c5.95 4.151 11.459 11.672 10.709 10.672 -0.251-0.291-1.608-2.192-3.735-4.794C75.559-3.612 50 28.843 47.748 53.002 51.44 28.64 73.278 5.713 91.268 18.114zM148.446 35.102c0.914 2.425 1.39 3.932 1.306 3.63 -0.112-0.292-0.599-2.129-1.518-4.706 -7.781-22.254-29.125-27.144-48.288-4.222C119.501 8.442 139.361 12.269 148.446 35.102zM170.729 89.177c-0.008-0.391 0.217-2.754 0.27-6.182 0.46-22.099-4.53-58.257-22.219-71.904C171.765 31.294 170.628 90.434 170.729 89.177zM160.594 109.636c1.141 1.432 1.838 2.295 1.702 2.122 -6.983-11.994-4.544 1.486-14.992-43.759C151.208 88.03 150.813 97.418 160.594 109.636zM40.224 110.197c-3.71 3.778-2.039 2.239 0.691-0.536C55.243 92.089 52.19 85.149 56.037 63.719 52.939 77.874 52.532 97.469 40.224 110.197zM80.217 24.943c1.441-0.43 2.318-0.692 2.144-0.644 -4.026 1.411-20.332 4.076-24.18 27.199C61.569 36.735 70.158 28.113 80.217 24.943zM143.451 47.042c2.782 8.476-1.829-8.357-4.675-13.598 -5.338-10.289-12.488-12.038-23.153-11.645C133.024 21.025 137.857 30.72 143.451 47.042zM34.274 152.301c2.071 11.298 11.409 25.639 15.081 38.07 1.789 5.938 1.875 6.194-0.112-1.306 -11.232-35.413-21.715-39.51-10.232-69.374C39.011 119.691 30.189 136.554 34.274 152.301zM148.784 189.284c-0.385 2.617-0.607 4.203-0.555 3.89 9.005-39.146 13.987-26.598 11.758-65.936C160.009 171.216 154.996 151.983 148.784 189.284zM46.041 133.496c-8.804 20.717 5.362 28.95 22.507 53.013 3.892 6.425 2.585 4.246 1.648 2.489 -11.499-21.461-31.094-34.2-23.91-53.677 2.383-6.427 3.979-9.329 3.182-22.331C49.611 121.966 49.23 125.986 46.041 133.496zM52.428 119.592c-0.092 12.744-6.549 21.745 6.856 35.309 4.074 3.177-2.931-3.353-4.056-5.359 -2.187-3.878-3.819-8.571-3.37-13.059 0.683-13.909 1.296-1.389 0.912-29.999C52.413 116.792 52.728 110.031 52.428 119.592zM142.67 147.298c-1.671 2.148-4.705 4.313-5.604 6.149 -0.214 0.387 0.542-0.853 1.744-1.979 17.557-16.844 13.72-27.795 16.996-34.761C152.473 123.786 154.94 131.114 142.67 147.298zM126.529 187.542c-2.762 11.25-1.063 15.187-1.063 15.187 -0.185-1-0.322-1.582-0.322-3.37 2.057-31.334 25.247-25.986 31.597-60.146C151.157 167.077 131.887 167.036 126.529 187.542z" fill="#7a6155" stroke-width="none" opacity="1"></path><path id="SvgjsPath4144" d="M171.429 103.136c12.069-85.836-28.95-117.955-66.649-108.561 -63.629-15.205-85.202 40.694-77.51 109.5 -2.854 5.875-4.629 12.232-5.31 18.601 -2.671 2.329-6.03 4.794-7.03 5.43 2.281-0.256 4.492-0.737 6.75-1.4 -0.454 12.987 3.396 20.927 6.94 29.32 6.294 14.887 0.154 21.277 3.39 34.07 1.24 4.85 3.11 9.63 3.55 14.64 0.946 10.766-5.545 16.426-3.15 37.41 0.08 0 0.15-0.01 0.23-0.01 24.692-0.967 13.033-0.165 29.72 0.439 62.103 2.413 88.897-1.46 106.34-1.46 -12.259-39.767-0.309-49.433 3.61-63.05 3.343-11.656-3.539-17.892-3.11-27.43C170.279 131.121 182.242 124.247 171.429 103.136zM69.579 161.266c-11.588-2.079-16.382-8.37-21.42-19.061 -0.284-5.823 1.921-12.104 2.96-17.87 1.044-5.75 0.401-10.896-0.69-22.729 1.12-2.35 2.09-4.77 2.94-7.24 1.57 6.54 3.01 13.15 3.04 19.83C56.463 128.817 50.079 147.932 69.579 161.266zM21.699 126.226c-1.71 0.529-3.46 0.96-5.23 1.27 41.837-27.209 31.729-67.088 39.07-85.77 7.243-18.434 27.63-33.995 44.1-9.15 -0.06 0.08-0.109 0.15-0.16 0.23 -17.355-18.325-36.108 8.93-40.729 31.36 -4.49 21.877-6.914 51.458-35.12 61.41C23.629 125.575 21.699 126.205 21.699 126.226zM32.619 241.855c-0.543-9.458-0.846-11.33 0.73-18.64 1.28-5.961 3.59-12.12 3.23-18.271 -0.39-6.41-3.11-12.39-3.89-18.74 -0.75-6.14 0.5-12.31 0.53-18.46 0.082-12.213-10.172-20.935-9.61-41.63 8.104-2.688 15.358-7.616 20.94-14.84 0.917 21.249-5.573 19.928-6.48 31.84 -1.511 20.052 22.174 35.669 27.74 56.09 1.939 7.062 2.03 35.213 1.99 42.561C42.492 241.322 58.322 240.284 32.619 241.855zM67.999 241.766c1.762-47.609-0.21-49.127-16.54-70.601 -22.601-29.594-7.548-34.703-6.54-50.26 0.21-3.27 0-6.56-0.21-9.84 2.15-2.82 3.97-5.86 5.51-9.05 0.795 13.27 0.928 13.425 0.83 15.92 -0.627 17.156-14.775 28.272 12.29 53.859 21.941 20.76 20.976 18.661 21.51 70.03C79.229 241.865 73.609 241.865 67.999 241.766zM85.059 241.825c0.35-11.354 1.576-40.352-1.78-48.91 -8.071-20.492-33.704-27.098-35.08-49.83 0.323 1 3.402 7.811 6.93 11.45 4.472 4.623 9.446 6.313 15.75 7.25 -17.932-13.084-14.028-28.113-13.65-42.38 0.263-9.843-1.635-17.335-3.74-25.39 4.287-12.413 4.894-24.4 7.4-33.84 5.711-21.558 22.336-43.879 38.589-27.22 0.006-0.017 0.2-0.286 0.21-0.3 0.008 0.011 0.188 0.291 0.19 0.3 13.404-16.837 29.143-4.305 37.7 17.34 11.029 27.882 1.583 37.684 13.29 55.6 0.491 11.79 1.402 25.005-13.83 42.95 -3.366 3.96-8.398 7.835-12 9.92 15.66-0.846 25.939-14.893 31.14-29.75 -15.514 57.917-43.439 15.318-35.93 103.479 0.343 4.205 0.894 8.792 1.021 9.55C109.791 242.117 111.782 241.719 85.059 241.825zM163.389 147.476c7.729-35.545-14.471-31.226-17.31-59.59 -0.996-10.411-0.63-29.001-12.86-48.65 -8.754-14.108-21.634-20.468-33.27-6.5 -0.04-0.08-0.09-0.16-0.141-0.24 15.769-21.402 42.415-19.527 49.341 26.27 4.381 29.034 5.438 27.162 15.17 47.38C168.679 115.133 174.634 126.9 163.389 147.476zM151.329 106.596c2.058 3.087 4.326 5.995 6.521 9.05 0 16.35-13.219 39.914-30.75 42.47 2.52-1.54 4.96-3.229 7.09-5.25C150.003 137.833 152.699 124.613 151.329 106.596zM167.939 156.695c1.3 5.5 3.699 10.57 3.729 16.32 -1.432 16.422-17.601 23.629-3.31 67.67 -9.831-0.523-19.654 0.533-37.141 1.149 -0.459-25.169-2.177-31.864-0.949-42.59 2.851-25.063 24.016-23.109 27.159-56.189 -4.017 34.862-28.503 30.377-29.029 61.109 -0.033 2.001 2.4 37.353 2.43 37.681 -2.771 0.093-6.599 0.199-9.37 0.199 -7.985-81.762 13.702-65.904 27.891-91.109 4.94-8.745 8.701-22.552 8.76-34.92 8.21 11.655 7.685 17.531 4.77 32.819 5.384-8.491 9.791-22.53 6.51-32.88 -1.094-4.394-4.797-11.869-6.25-14.88 -10.84-22.439-8.965-23.64-13-45.33 -7.404-40.292-33.264-47.161-50.39-23.33 -17.552-27.954-45.346-8.197-49.08 25.4 -1.354 12.346-0.255 38.468-26.65 63.02 1.906-14.99 8.729-22.372 13.75-34.22 12.649-29.735 1.814-50.492 18.65-67.33C38.122 37.494 51 59.408 34.099 91.476c-1.94 3.67-4.1 7.24-6 10.939 -5.854-64.179 16.384-121.011 75.59-107.03 40.783-10.329 64.18 25.442 67.6 67.79 1.471 18.212-0.248 34.59-0.54 38.77 -2.87-4.89-6.31-9.47-8.34-14.81 -11.876-31.337-1.556-52.06-19.32-67.28 18.119 16.345 6.485 41.9 19.79 71.61 2.613 4.897 5.803 9.391 8.16 14.36C180.63 126.046 163.44 137.618 167.939 156.695z" fill="#3d2012" stroke-width="none" opacity="1"></path></g><g id="svga-group-glasses-single" ><path id="SvgjsPath4176" d="M143.62 100.1c-2.36 2.2-6.23 3.04-13.56 3.04 -9.78 0-16.18-1.09-20.41-9.51 -3.29-6.54-4.62-13.56-3.02-15.98 2.21-3.34 8.57-5.61 15.67-6.28C134.63 77.23 143.29 88.98 143.62 100.1zM72.01 71.17c-7.64 0.21-15.09 2.35-18.27 7.05 -2.18 3.21-1.69 12.55-0.22 16.94 2 5.99 5.07 7.98 16.42 7.98 9.78 0 16.18-1.09 20.41-9.51 0.42-0.84 0.81-1.69 1.17-2.54C88.29 82.95 81.16 75.43 72.01 71.17z" fill="#ffffff" stroke-width="none" opacity="0.2"></path><path id="SvgjsPath4177" d="M146.48 95.17c-0.71 2.12-1.56 3.73-2.86 4.94 -0.33-11.12-8.99-22.87-21.33-28.74 9.37-0.89 19.99 0.99 23.97 6.86C148.44 81.44 147.95 90.77 146.48 95.17zM93.38 77.65c-2.79-4.23-12.22-6.73-21.37-6.47 9.16 4.25 16.28 11.77 19.52 19.92C93.94 85.36 94.77 79.76 93.38 77.65z" fill="#ffffff" stroke-width="none" opacity="0.4"></path><path id="SvgjsPath4178" d="M151.79 73.61c-10.18-5.46-36.14-7.01-45.5 0.15 -0.8 0.47-4.23-0.53-6.29-0.53 -1.95 0-5.42 1.05-6.29 0.53 -9.36-7.16-35.32-5.61-45.5-0.15 -1.46 0.79-1.62 4.51-0.35 5.08 0.91 0.41 1.51 0.98 1.46 1.98C49 86.29 50.55 93.59 51.23 95.6c0.87 2.59 2.44 7.41 9.29 8.6 5.83 1.01 16.43 1.48 21.94-0.17 9.99-2.98 14.24-18.04 14.42-23.17l0.01 0.02c0.4-1.8 5.82-1.8 6.23 0l0.01-0.02c0.17 5.13 4.43 20.19 14.42 23.17 5.51 1.65 16.11 1.18 21.94 0.17 6.85-1.19 8.42-6.01 9.29-8.6 0.68-2.02 2.23-9.31 1.92-14.93 -0.05-1 0.56-1.57 1.46-1.98C153.41 78.12 153.25 74.4 151.79 73.61zM81.41 101.36c-5.06 1.51-14.32 1.61-19.71 0.67 -4.54-0.79-6.44-3.26-7.7-7.03 -1.48-4.4-1.87-13.51 0.16-16.5 6.76-9.98 33.87-8.05 38.8-0.58C95.16 81.27 90.89 98.53 81.41 101.36zM146 95.01c-1.26 3.77-3.17 6.24-7.7 7.03 -5.39 0.94-14.65 0.84-19.71-0.67 -9.48-2.83-13.75-20.09-11.55-23.44 4.93-7.47 32.04-9.4 38.8 0.58C147.87 81.49 147.48 90.61 146 95.01z" fill="#2e0914" stroke-width="none" opacity="1"></path><path id="SvgjsPath4179" d="M118.58 101.32c2.79 0.83 6.86 1.24 10.85 1.27 -12.54 1.22-15.39-3.4-17.12-5.16 -3.52-3.59-5.69-8.95-5.85-16.65C106.49 86.86 110.76 98.99 118.58 101.32zM93.69 73.72c-9.36-7.16-35.32-5.62-45.5-0.15C71.43 67.05 84.93 70.42 93.69 73.72zM61.68 102c-4.54-0.79-6.44-3.26-7.7-7.03 -1.32-3.93-1.77-11.62-0.4-15.35 -1.83 4.22-1.12 12.39 0.26 16.5 1.6 4.8 4.54 7.18 17.34 6.46C67.71 102.65 64.25 102.44 61.68 102zM152.97 76.3c-0.04-1.13-0.45-2.32-1.2-2.73 -9.98-5.36-35.14-6.94-44.93-0.25C120 68.05 138.97 67.31 152.97 76.3z" fill="#3d121f" stroke-width="none" opacity="1"></path></g></g></g></g><defs id="SvgjsDefs1001"><radialGradient id="SvgjsRadialGradient2751" cx="100" cy="113" r="40" gradientUnits="userSpaceOnUse" class="svga-on-canvas-facehighlight-gradient-single-0"><stop id="SvgjsStop2752" stop-opacity="0.5" stop-color="#fff4f3" offset="0" ></stop><stop id="SvgjsStop2753" stop-opacity="0" stop-color="#f3d4cf" offset="0.9" ></stop></radialGradient><radialGradient id="SvgjsRadialGradient2755" cx="100" cy="57" r="36" gradientUnits="userSpaceOnUse" class="svga-on-canvas-facehighlight-gradient-single-1"><stop id="SvgjsStop2756" stop-opacity="0.5" stop-color="#fff4f3" offset="0" ></stop><stop id="SvgjsStop2757" stop-opacity="0" stop-color="#f3d4cf" offset="0.9" ></stop></radialGradient><radialGradient id="SvgjsRadialGradient3758" cx="126.485" cy="86.435" r="13.37" gradientTransform="matrix(-1.0172 0 0 1.0172 202.565 -1.469)" gradientUnits="userSpaceOnUse" class="svga-on-canvas-eyesback-gradient-left-0"><stop id="SvgjsStop3759" stop-opacity="1" stop-color="#ffffff" offset="0" ></stop><stop id="SvgjsStop3760" stop-opacity="1" stop-color="#fdfefe" offset="0.544" ></stop><stop id="SvgjsStop3761" stop-opacity="1" stop-color="#f6f8f9" offset="0.74" ></stop><stop id="SvgjsStop3762" stop-opacity="1" stop-color="#eaeff2" offset="0.879" ></stop><stop id="SvgjsStop3763" stop-opacity="1" stop-color="#d9e3e8" offset="0.992" ></stop><stop id="SvgjsStop3764" stop-opacity="1" stop-color="#d8e2e7" offset="1" ></stop></radialGradient><radialGradient id="SvgjsRadialGradient3766" cx="126.484" cy="86.435" r="13.371" gradientTransform="matrix(1.0172 0 0 1.0172 -2.565 -1.469)" gradientUnits="userSpaceOnUse" class="svga-on-canvas-eyesback-gradient-right-0"><stop id="SvgjsStop3767" stop-opacity="1" stop-color="#ffffff" offset="0" ></stop><stop id="SvgjsStop3768" stop-opacity="1" stop-color="#fdfefe" offset="0.544" ></stop><stop id="SvgjsStop3769" stop-opacity="1" stop-color="#f6f8f9" offset="0.74" ></stop><stop id="SvgjsStop3770" stop-opacity="1" stop-color="#eaeff2" offset="0.879" ></stop><stop id="SvgjsStop3771" stop-opacity="1" stop-color="#d9e3e8" offset="0.992" ></stop><stop id="SvgjsStop3772" stop-opacity="1" stop-color="#d8e2e7" offset="1" ></stop></radialGradient><radialGradient id="SvgjsRadialGradient3774" cx="126.485" cy="86.435" r="13.37" gradientTransform="matrix(-1.0172 0 0 1.0172 202.565 -1.469)" gradientUnits="userSpaceOnUse" class="svga-on-canvas-eyesfront-gradient-left-0"><stop id="SvgjsStop3775" stop-opacity="1" stop-color="#ffffff" offset="0" ></stop><stop id="SvgjsStop3776" stop-opacity="1" stop-color="#fdfefe" offset="0.544" ></stop><stop id="SvgjsStop3777" stop-opacity="1" stop-color="#f6f8f9" offset="0.74" ></stop><stop id="SvgjsStop3778" stop-opacity="1" stop-color="#eaeff2" offset="0.879" ></stop><stop id="SvgjsStop3779" stop-opacity="1" stop-color="#d9e3e8" offset="0.992" ></stop><stop id="SvgjsStop3780" stop-opacity="1" stop-color="#d8e2e7" offset="1" ></stop></radialGradient><radialGradient id="SvgjsRadialGradient3784" cx="121.915" cy="85.945" fx="133.772" fy="85.978" r="16.863" gradientTransform="matrix(0.9998 0.0208 0.0166 -0.7998 -45.2343 152.149)" gradientUnits="userSpaceOnUse" class="svga-on-canvas-eyesfront-gradient-left-3"><stop id="SvgjsStop3785" stop-opacity="1" stop-color="#e4b3ab" offset="0" ></stop><stop id="SvgjsStop3786" stop-opacity="0.3" stop-color="#e4b3ab" offset="0.7" ></stop><stop id="SvgjsStop3787" stop-opacity="0" stop-color="#f3d4cf" offset="1" ></stop></radialGradient><radialGradient id="SvgjsRadialGradient3789" cx="72.994" cy="103.619" r="22.097" gradientTransform="matrix(1.0455 -0.0545 0.0548 1.0391 -8.9357 0.7632)" gradientUnits="userSpaceOnUse" class="svga-on-canvas-eyesfront-gradient-left-4"><stop id="SvgjsStop3790" stop-opacity="0" stop-color="#000000" offset="0.95" ></stop><stop id="SvgjsStop3791" stop-opacity="0.3" stop-color="#000000" offset="1" ></stop></radialGradient><radialGradient id="SvgjsRadialGradient3795" cx="126.484" cy="86.435" r="13.371" gradientTransform="matrix(1.0172 0 0 1.0172 -2.565 -1.469)" gradientUnits="userSpaceOnUse" class="svga-on-canvas-eyesfront-gradient-right-0"><stop id="SvgjsStop3796" stop-opacity="1" stop-color="#ffffff" offset="0" ></stop><stop id="SvgjsStop3797" stop-opacity="1" stop-color="#fdfefe" offset="0.544" ></stop><stop id="SvgjsStop3798" stop-opacity="1" stop-color="#f6f8f9" offset="0.74" ></stop><stop id="SvgjsStop3799" stop-opacity="1" stop-color="#eaeff2" offset="0.879" ></stop><stop id="SvgjsStop3800" stop-opacity="1" stop-color="#d9e3e8" offset="0.992" ></stop><stop id="SvgjsStop3801" stop-opacity="1" stop-color="#d8e2e7" offset="1" ></stop></radialGradient><radialGradient id="SvgjsRadialGradient3805" cx="121.915" cy="85.945" fx="133.772" fy="85.978" r="16.863" gradientTransform="matrix(-0.9998 0.0208 -0.0166 -0.7998 245.2343 152.149)" gradientUnits="userSpaceOnUse" class="svga-on-canvas-eyesfront-gradient-right-3"><stop id="SvgjsStop3806" stop-opacity="1" stop-color="#e4b3ab" offset="0" ></stop><stop id="SvgjsStop3807" stop-opacity="0.3" stop-color="#e4b3ab" offset="0.7" ></stop><stop id="SvgjsStop3808" stop-opacity="0" stop-color="#f3d4cf" offset="1" ></stop></radialGradient><radialGradient id="SvgjsRadialGradient3810" cx="72.994" cy="103.619" r="22.097" gradientTransform="matrix(-1.0455 -0.0545 -0.0548 1.0391 208.9357 0.7632)" gradientUnits="userSpaceOnUse" class="svga-on-canvas-eyesfront-gradient-right-4"><stop id="SvgjsStop3811" stop-opacity="0" stop-color="#000000" offset="0.95" ></stop><stop id="SvgjsStop3812" stop-opacity="0.3" stop-color="#000000" offset="1" ></stop></radialGradient><radialGradient id="SvgjsRadialGradient3839" cx="-558.588" cy="-490.918" r="84.646" gradientTransform="matrix(0.096 -0.0248 0.0245 0.0961 140.5478 120.3577)" gradientUnits="userSpaceOnUse" class="svga-on-canvas-eyesiris-gradient-left-1"><stop id="SvgjsStop3840" stop-opacity="0.8" stop-color="#ffffff" offset="0" ></stop><stop id="SvgjsStop3841" stop-opacity="0" stop-color="#ffffff" offset="1" ></stop></radialGradient><radialGradient id="SvgjsRadialGradient3843" cx="-565.337" cy="-492.691" r="84.644" gradientTransform="matrix(0.0991 8.856325e-004 -0.0011 0.0991 130.3774 136.3533)" gradientUnits="userSpaceOnUse" class="svga-on-canvas-eyesiris-gradient-left-2"><stop id="SvgjsStop3844" stop-opacity="0.8" stop-color="#ffffff" offset="0" ></stop><stop id="SvgjsStop3845" stop-opacity="0" stop-color="#ffffff" offset="1" ></stop></radialGradient><linearGradient id="SvgjsLinearGradient3849" x1="122.283" y1="93.047" x2="123.61" y2="91.466" gradientTransform="matrix(1 0 0 1 -52 0)" gradientUnits="userSpaceOnUse" class="svga-on-canvas-eyesiris-gradient-left-5"><stop id="SvgjsStop3850" stop-opacity="1" stop-color="#ffffff" offset="0" ></stop><stop id="SvgjsStop3851" stop-opacity="0" stop-color="#ffffff" offset="1" ></stop></linearGradient><linearGradient id="SvgjsLinearGradient3853" x1="127" y1="85" x2="125" y2="87" gradientTransform="matrix(1 0 0 1 -50 0)" gradientUnits="userSpaceOnUse" class="svga-on-canvas-eyesiris-gradient-left-6"><stop id="SvgjsStop3854" stop-opacity="1" stop-color="#ffffff" offset="0" ></stop><stop id="SvgjsStop3855" stop-opacity="0" stop-color="#ffffff" offset="1" ></stop></linearGradient><linearGradient id="SvgjsLinearGradient3857" x1="130" y1="81" x2="126" y2="85" gradientTransform="matrix(1 0 0 1 -50 0)" gradientUnits="userSpaceOnUse" class="svga-on-canvas-eyesiris-gradient-left-7"><stop id="SvgjsStop3858" stop-opacity="1" stop-color="#ffffff" offset="0" ></stop><stop id="SvgjsStop3859" stop-opacity="0" stop-color="#ffffff" offset="1" ></stop></linearGradient><radialGradient id="SvgjsRadialGradient3862" cx="-578.76" cy="-490.73" r="84.646" gradientTransform="matrix(0.096 -0.0248 0.0245 0.0961 192.4794 119.8404)" gradientUnits="userSpaceOnUse" class="svga-on-canvas-eyesiris-gradient-right-1"><stop id="SvgjsStop3863" stop-opacity="0.8" stop-color="#ffffff" offset="0" ></stop><stop id="SvgjsStop3864" stop-opacity="0" stop-color="#ffffff" offset="1" ></stop></radialGradient><radialGradient id="SvgjsRadialGradient3866" cx="-584.778" cy="-487.329" r="84.644" gradientTransform="matrix(0.0991 8.856325e-004 -0.0011 0.0991 182.3104 135.839)" gradientUnits="userSpaceOnUse" class="svga-on-canvas-eyesiris-gradient-right-2"><stop id="SvgjsStop3867" stop-opacity="0.8" stop-color="#ffffff" offset="0" ></stop><stop id="SvgjsStop3868" stop-opacity="0" stop-color="#ffffff" offset="1" ></stop></radialGradient><linearGradient id="SvgjsLinearGradient3872" x1="120.284" y1="93.047" x2="121.611" y2="91.467" gradientUnits="userSpaceOnUse" class="svga-on-canvas-eyesiris-gradient-right-5"><stop id="SvgjsStop3873" stop-opacity="1" stop-color="#ffffff" offset="0" ></stop><stop id="SvgjsStop3874" stop-opacity="0" stop-color="#ffffff" offset="1" ></stop></linearGradient><linearGradient id="SvgjsLinearGradient3876" x1="127" y1="85" x2="125" y2="87" gradientUnits="userSpaceOnUse" class="svga-on-canvas-eyesiris-gradient-right-6"><stop id="SvgjsStop3877" stop-opacity="1" stop-color="#ffffff" offset="0" ></stop><stop id="SvgjsStop3878" stop-opacity="0" stop-color="#ffffff" offset="1" ></stop></linearGradient><linearGradient id="SvgjsLinearGradient3880" x1="130" y1="81" x2="126" y2="85" gradientUnits="userSpaceOnUse" class="svga-on-canvas-eyesiris-gradient-right-7"><stop id="SvgjsStop3881" stop-opacity="1" stop-color="#ffffff" offset="0" ></stop><stop id="SvgjsStop3882" stop-opacity="0" stop-color="#ffffff" offset="1" ></stop></linearGradient><linearGradient id="SvgjsLinearGradient3969" x1="99.98" y1="171.27" x2="99.98" y2="136.351" gradientUnits="userSpaceOnUse" class="svga-on-canvas-chinshadow-gradient-single-0"><stop id="SvgjsStop3970" stop-opacity="0.8" stop-color="#e4b3ab" offset="0" ></stop><stop id="SvgjsStop3971" stop-opacity="1" stop-color="#c5796d" offset="0.7" ></stop></linearGradient><linearGradient id="SvgjsLinearGradient4007" x1="100" y1="141" x2="100" y2="138" gradientUnits="userSpaceOnUse" class="svga-on-canvas-mouth-gradient-single-0"><stop id="SvgjsStop4008" stop-opacity="1" stop-color="#ebc3bd" offset="0.1" ></stop><stop id="SvgjsStop4009" stop-opacity="1" stop-color="#e4b3ab" offset="1" ></stop></linearGradient></defs></svg>